<svg width="85" height="85" viewBox="0 0 85 85" fill="none" xmlns="http://www.w3.org/2000/svg">
<g filter="url(#filter0_d_1_5922)">
<rect x="3.88281" y="3.30017" width="76.2927" height="76.2927" rx="3.88258" fill="white"/>
<rect x="3.88281" y="3.30017" width="76.2927" height="76.2927" rx="3.88258" fill="white" fill-opacity="0.1"/>
<path d="M25.3449 51.4472L36.49 45.1933L36.6765 44.6483L36.49 44.3471H35.945L34.0803 44.2323L27.7116 44.0602L22.1893 43.8307L16.8391 43.5438L15.4908 43.2569L14.2285 41.5931L14.3576 40.7611L15.4908 40.0009L17.1116 40.1443L20.6975 40.3882L26.0765 40.7611L29.978 40.9906L35.7585 41.5931H36.6765L36.8056 41.2201L36.49 40.9906L36.2462 40.7611L30.6808 36.9887L24.6564 33.0011L21.5008 30.7061L19.7939 29.5443L18.9333 28.4542L18.5603 26.0731L20.1095 24.3662L22.1893 24.5096L22.72 24.6531L24.8285 26.2739L29.3325 29.7595L35.2134 34.0913L36.074 34.8085L36.4183 34.5646L36.4613 34.3925L36.074 33.747L32.8754 27.9665L29.4616 22.0856L27.9411 19.6471L27.5395 18.1841C27.3961 17.5816 27.2957 17.0796 27.2957 16.4628L29.06 14.0674L30.0353 13.7518L32.3877 14.0674L33.3774 14.928L34.8405 18.2701L37.2072 23.5343L40.8792 30.6918L41.955 32.8147L42.5287 34.7798L42.7439 35.3822H43.1168V35.038L43.4181 31.0074L43.9775 26.0588L44.5225 19.6901L44.709 17.8972L45.5983 15.7456L47.3626 14.5838L48.7396 15.2436L49.8727 16.8644L49.715 17.9115L49.0408 22.2864L47.7212 29.1427L46.8606 33.7327H47.3626L47.9363 33.1589L50.26 30.075L54.1615 25.1981L55.8828 23.2617L57.8909 21.1245L59.1818 20.1061H61.6203L63.4132 22.7741L62.61 25.5281L60.0998 28.7124L58.02 31.409L55.0365 35.4252L53.1718 38.6382L53.3439 38.8964L53.7886 38.8534L60.5301 37.419L64.1735 36.7592L68.5196 36.0133L70.4847 36.9313L70.6999 37.8637L69.9253 39.7714L65.2779 40.9189L59.8273 42.009L51.7087 43.9311L51.6083 44.0028L51.7231 44.1462L55.3807 44.4905L56.9442 44.5766H60.774L67.9028 45.1073L69.7675 46.3408L70.8863 47.8469L70.6999 48.9944L67.8311 50.4575L63.9583 49.5395L54.9217 47.3879L51.8235 46.6134H51.3932V46.8716L53.9751 49.3961L58.7085 53.6705L64.6325 59.1785L64.9337 60.5411L64.1735 61.6169L63.3702 61.5022L58.1634 57.5863L56.1553 55.8221L51.6083 51.9923H51.3071V52.3939L52.3542 53.9287L57.8909 62.2481L58.1778 64.8012L57.7761 65.6332L56.3418 66.1352L54.764 65.8483L51.5223 61.3014L48.1802 56.1806L45.4836 51.5906L45.1536 51.7771L43.5615 68.9179L42.8156 69.7929L41.0944 70.4527L39.66 69.3626L38.8998 67.5983L39.66 64.1127L40.578 59.5658L41.3239 55.9511L41.998 51.4616L42.3996 49.9698L42.371 49.8694L42.041 49.9124L38.6559 54.5598L33.5065 61.5165L29.4329 65.877L28.4575 66.2643L26.765 65.3893L26.9227 63.8259L27.8694 62.4345L33.5065 55.2626L36.906 50.8161L39.1006 48.2486L39.0862 47.8756H38.9571L23.9823 57.6007L21.3143 57.9449L20.1668 56.8691L20.3103 55.1049L20.8553 54.5311L25.3593 51.4329L25.3449 51.4472Z" fill="#D97757"/>
</g>
<defs>
<filter id="filter0_d_1_5922" x="0.000233144" y="-2.15769e-05" width="84.4459" height="84.4461" filterUnits="userSpaceOnUse" color-interpolation-filters="sRGB">
<feFlood flood-opacity="0" result="BackgroundImageFix"/>
<feColorMatrix in="SourceAlpha" type="matrix" values="0 0 0 0 0 0 0 0 0 0 0 0 0 0 0 0 0 0 127 0" result="hardAlpha"/>
<feMorphology radius="0.582387" operator="dilate" in="SourceAlpha" result="effect1_dropShadow_1_5922"/>
<feOffset dx="0.194129" dy="0.776516"/>
<feGaussianBlur stdDeviation="1.74716"/>
<feComposite in2="hardAlpha" operator="out"/>
<feColorMatrix type="matrix" values="0 0 0 0 0 0 0 0 0 0 0 0 0 0 0 0 0 0 0.25 0"/>
<feBlend mode="normal" in2="BackgroundImageFix" result="effect1_dropShadow_1_5922"/>
<feBlend mode="normal" in="SourceGraphic" in2="effect1_dropShadow_1_5922" result="shape"/>
</filter>
</defs>
</svg>
