<svg width="85" height="85" viewBox="0 0 85 85" fill="none" xmlns="http://www.w3.org/2000/svg">
<g filter="url(#filter0_d_1_5924)">
<rect x="3.88281" y="3.30017" width="76.2927" height="76.2927" rx="3.88258" fill="white"/>
<rect x="3.88281" y="3.30017" width="76.2927" height="76.2927" rx="3.88258" fill="white" fill-opacity="0.1"/>
<path d="M57.2295 19.0076H26.8282C22.8306 19.0076 19.5898 22.2483 19.5898 26.246V56.6472C19.5898 60.645 22.8306 63.8856 26.8282 63.8856H57.2295C61.2273 63.8856 64.4679 60.645 64.4679 56.6472V26.246C64.4679 22.2483 61.2273 19.0076 57.2295 19.0076Z" fill="#FFD02F"/>
<path fill-rule="evenodd" clip-rule="evenodd" d="M49.9916 26.2458H45.6485L49.2677 32.7604L41.3055 26.2458H36.9624L40.9436 34.2081L32.6194 26.2458H28.2764L32.6194 36.3796L28.2764 56.6471H32.6194L40.9436 34.9319L36.9624 56.6471H41.3055L49.2677 33.4842L45.6485 56.6471H49.9916L57.9538 31.3127L49.9916 26.2458Z" fill="#050038"/>
</g>
<defs>
<filter id="filter0_d_1_5924" x="0.000233144" y="-2.15769e-05" width="84.4459" height="84.4461" filterUnits="userSpaceOnUse" color-interpolation-filters="sRGB">
<feFlood flood-opacity="0" result="BackgroundImageFix"/>
<feColorMatrix in="SourceAlpha" type="matrix" values="0 0 0 0 0 0 0 0 0 0 0 0 0 0 0 0 0 0 127 0" result="hardAlpha"/>
<feMorphology radius="0.582387" operator="dilate" in="SourceAlpha" result="effect1_dropShadow_1_5924"/>
<feOffset dx="0.194129" dy="0.776516"/>
<feGaussianBlur stdDeviation="1.74716"/>
<feComposite in2="hardAlpha" operator="out"/>
<feColorMatrix type="matrix" values="0 0 0 0 0 0 0 0 0 0 0 0 0 0 0 0 0 0 0.25 0"/>
<feBlend mode="normal" in2="BackgroundImageFix" result="effect1_dropShadow_1_5924"/>
<feBlend mode="normal" in="SourceGraphic" in2="effect1_dropShadow_1_5924" result="shape"/>
</filter>
</defs>
</svg>
