<svg width="85" height="85" viewBox="0 0 85 85" fill="none" xmlns="http://www.w3.org/2000/svg">
<g filter="url(#filter0_d_1_5916)">
<rect x="3.88281" y="3.30017" width="76.2927" height="76.2927" rx="3.88258" fill="white"/>
<rect x="3.88281" y="3.30017" width="76.2927" height="76.2927" rx="3.88258" fill="white" fill-opacity="0.1"/>
<path d="M36.4429 20.5034C34.1296 20.5034 32.2545 22.3827 32.2545 24.7002C32.254 25.2507 32.3619 25.796 32.5721 26.3049C32.7823 26.8138 33.0906 27.2763 33.4795 27.666C33.8685 28.0557 34.3303 28.365 34.8388 28.5762C35.3472 28.7874 35.8923 28.8964 36.4429 28.8969H40.6319V24.7002C40.6329 23.5882 40.192 22.5213 39.4064 21.7343C38.6208 20.9473 37.5549 20.5045 36.4429 20.5034ZM36.4429 31.6947H25.2733C22.96 31.6947 21.085 33.574 21.085 35.8922C21.085 38.2097 22.96 40.089 25.2733 40.089H36.4436C38.7561 40.089 40.6319 38.2097 40.6319 35.8922C40.6319 33.574 38.7561 31.6947 36.4429 31.6947Z" fill="#2FBDEE"/>
<path d="M62.9718 35.8922C62.9718 33.574 61.096 31.6947 58.7827 31.6947C56.4693 31.6947 54.5944 33.574 54.5944 35.8922V40.089H58.7827C59.8947 40.0878 60.9607 39.645 61.7463 38.8581C62.5318 38.071 62.9726 37.0042 62.9718 35.8922ZM51.8021 35.8922V24.7002C51.803 23.5882 51.3622 22.5213 50.5766 21.7343C49.7911 20.9473 48.7251 20.5045 47.6131 20.5034C45.2997 20.5034 43.4248 22.3827 43.4248 24.7002V35.8915C43.4248 38.2103 45.2997 40.0896 47.6131 40.0896C48.7251 40.0885 49.7911 39.6457 50.5766 38.8588C51.3622 38.0717 51.803 37.0049 51.8021 35.8929" fill="#29AD72"/>
<path d="M47.6131 62.4724C48.7251 62.4714 49.7911 62.0286 50.5767 61.2415C51.3622 60.4546 51.803 59.3876 51.8021 58.2757C51.803 57.1637 51.3622 56.0969 50.5767 55.3098C49.7911 54.5229 48.7251 54.0801 47.6131 54.0789H43.4248V58.2757C43.4248 60.5933 45.2997 62.4724 47.6131 62.4724ZM47.6131 51.2811H58.7833C61.096 51.2811 62.9718 49.4019 62.9718 47.0837C62.9726 45.9717 62.5318 44.9049 61.7463 44.1178C60.9607 43.3309 59.8947 42.8881 58.7827 42.8869H47.6131C45.2997 42.8869 43.4248 44.7662 43.4248 47.0837C43.4241 47.6342 43.5322 48.1795 43.7424 48.6884C43.9524 49.1973 44.2609 49.6598 44.6498 50.0495C45.0387 50.4391 45.5005 50.7484 46.0091 50.9596C46.5175 51.1708 47.0626 51.2799 47.6131 51.2804" fill="#E9A929"/>
<path d="M21.085 47.0837C21.0844 47.6342 21.1923 48.1795 21.4025 48.6884C21.6127 49.1973 21.921 49.6598 22.31 50.0495C22.6989 50.4391 23.1607 50.7484 23.6692 50.9596C24.1777 51.1708 24.7227 51.2799 25.2733 51.2804C26.3853 51.2792 27.4513 50.8364 28.2369 50.0495C29.0225 49.2624 29.4633 48.1956 29.4623 47.0837V42.8869H25.2733C22.96 42.8869 21.085 44.7662 21.085 47.0837ZM32.2545 47.0837V58.2751C32.2545 60.5933 34.1296 62.4724 36.4429 62.4724C37.5549 62.4714 38.6208 62.0286 39.4064 61.2415C40.192 60.4546 40.6329 59.3876 40.6319 58.2757V47.0837C40.6324 46.5331 40.5245 45.9877 40.3143 45.4787C40.1042 44.9698 39.7957 44.5074 39.4068 44.1176C39.0177 43.7279 38.5557 43.4187 38.0471 43.2075C37.5387 42.9963 36.9935 42.8874 36.4429 42.8869C34.1296 42.8869 32.2545 44.7662 32.2545 47.0837Z" fill="#DC1C50"/>
</g>
<defs>
<filter id="filter0_d_1_5916" x="0.000233144" y="-2.15769e-05" width="84.4459" height="84.4461" filterUnits="userSpaceOnUse" color-interpolation-filters="sRGB">
<feFlood flood-opacity="0" result="BackgroundImageFix"/>
<feColorMatrix in="SourceAlpha" type="matrix" values="0 0 0 0 0 0 0 0 0 0 0 0 0 0 0 0 0 0 127 0" result="hardAlpha"/>
<feMorphology radius="0.582387" operator="dilate" in="SourceAlpha" result="effect1_dropShadow_1_5916"/>
<feOffset dx="0.194129" dy="0.776516"/>
<feGaussianBlur stdDeviation="1.74716"/>
<feComposite in2="hardAlpha" operator="out"/>
<feColorMatrix type="matrix" values="0 0 0 0 0 0 0 0 0 0 0 0 0 0 0 0 0 0 0.25 0"/>
<feBlend mode="normal" in2="BackgroundImageFix" result="effect1_dropShadow_1_5916"/>
<feBlend mode="normal" in="SourceGraphic" in2="effect1_dropShadow_1_5916" result="shape"/>
</filter>
</defs>
</svg>
