<svg width="41" height="17" viewBox="0 0 41 17" fill="none" xmlns="http://www.w3.org/2000/svg">
<path d="M21.1021 0.0172348C21.9542 0.0070775 22.83 0.02709 23.6804 0.0145992C25.5164 -0.0305049 27.3777 -0.0113982 28.7951 1.35158C30.8004 3.27985 30.7895 7.2536 28.8958 9.23346L28.8752 9.25457C27.4142 10.7321 25.702 10.6692 23.8155 10.667L21.1016 10.6653L21.1021 0.0172348ZM23.6749 8.4705C24.7467 8.47402 26.1371 8.61869 26.9503 7.81091C26.9799 7.7812 27.0093 7.75103 27.0381 7.7204C27.9748 6.601 28.0165 3.76167 26.8284 2.76732C26.035 2.10336 24.6553 2.2001 23.676 2.21531L23.6749 8.4705Z" fill="#D92E2F"/>
<path d="M10.711 0.0166016L12.9235 0.0178917C14.3164 2.06119 15.7597 4.25309 17.1902 6.25458C17.2344 5.79289 17.2028 4.66056 17.2027 4.16241L17.2033 0.0169853L19.7715 0.0175072C19.7925 1.21083 19.7736 2.45656 19.7737 3.65663L19.7724 10.6656L17.5893 10.667C17.2036 10.1577 16.7906 9.49859 16.4144 8.96708C15.3634 7.48225 14.3546 5.92079 13.2912 4.44918C13.2491 4.96416 13.2799 6.00356 13.2798 6.54892L13.2802 10.6665L10.7109 10.6662L10.711 0.0166016Z" fill="#D92E2F"/>
<path d="M2.8202 0.0372191L7.27147 0.0371094C7.55143 1.18201 7.80317 2.47037 8.05513 3.62918L9.58578 10.6703C8.75052 10.6918 7.82431 10.6756 6.9827 10.6717C6.33129 7.84116 5.81843 4.88916 5.17588 2.04593L4.79748 2.04983L3.58697 7.29296L3.26191 8.68578L5.56987 8.68839C5.37762 9.54402 5.06953 10.5943 4.8408 11.4566L3.40488 16.862L3.4021 10.6783C2.29797 10.644 1.11821 10.6863 0 10.6686C0.292778 9.49016 0.635026 8.269 0.947982 7.09108L2.8202 0.0372191Z" fill="#D92E2F"/>
<path d="M29.9757 0.0179628C30.8218 0.0166451 32.0964 -0.0256038 32.909 0.0242495C33.6768 1.49701 34.4139 3.03505 35.1634 4.52173C35.9329 3.10637 36.712 1.46552 37.4471 0.0169474C38.3915 0.0167003 39.3916 -0.000732129 40.3313 0.0197473C39.1099 2.35676 37.6192 4.77525 36.4426 7.14254C36.4072 7.21359 36.4273 8.4275 36.4273 8.61063L36.4215 12.0914L16.7215 12.0916L10.5028 12.0896L8.56059 12.0866C8.28096 12.086 7.78218 12.0712 7.51556 12.0942L7.32422 12.0665C8.33575 12.0522 9.40804 11.9916 10.4259 11.9517L15.8656 11.7429L33.8237 11.0619L33.8273 8.31311C33.8275 8.16857 33.8399 7.17996 33.8078 7.10935C33.5409 6.51814 33.1006 5.75414 32.7923 5.18777L29.9757 0.0179628Z" fill="#D92E2F"/>
<path d="M30.0312 13.046C30.597 13.0422 31.1645 13.0274 31.7311 13.047C32.6527 13.0789 33.1679 13.7829 32.9697 14.672C32.8874 15.0422 32.659 15.2359 32.3512 15.4207C32.6013 15.9007 32.8783 16.3938 33.1369 16.8714L32.4682 16.8744L32.1289 16.872L31.4299 15.5691C31.2765 15.5661 31.1107 15.5717 30.9564 15.5739L30.9528 16.8736L30.0318 16.8729L30.0312 13.046ZM30.9564 14.8309C31.2773 14.8362 31.641 14.8792 31.9068 14.6937C32.0929 14.4629 32.1662 14.1249 31.8846 13.9382C31.5993 13.7494 31.2781 13.788 30.9561 13.7967L30.9564 14.8309Z" fill="#D92E2F"/>
<path d="M7.14544 13.0455C8.00895 13.025 8.95284 13.0445 9.82288 13.0448L9.8222 13.7934L8.0722 13.7962L8.07258 14.5745C8.56486 14.5965 9.18179 14.5796 9.68356 14.58L9.68543 15.336L8.12444 15.338L8.08543 15.3488C8.0579 15.4903 8.07124 15.9519 8.07256 16.1202L9.82275 16.123L9.82258 16.874L7.14453 16.8728L7.14544 13.0455Z" fill="#D92E2F"/>
<path d="M15.7266 13.0449L18.3934 13.0455L18.393 13.7934L16.6496 13.7963L16.6505 14.5745C17.1353 14.5975 17.7603 14.5803 18.2559 14.5811L18.2557 15.3357L16.6943 15.3381L16.6578 15.3711C16.634 15.5444 16.6483 15.9294 16.6507 16.1203L18.3932 16.1234L18.3934 16.8737L15.7266 16.8732L15.7266 13.0449Z" fill="#D92E2F"/>
<path d="M21.6432 13.0027C22.6883 12.849 23.4279 13.4078 23.6189 14.4293C23.3126 14.4364 22.9878 14.4338 22.6801 14.4358C22.4997 13.5699 21.4184 13.6088 21.1271 14.3652C20.8111 15.1857 21.2097 16.4675 22.3188 16.0304C22.5173 15.9522 22.6188 15.7159 22.6823 15.525L23.6206 15.5302C23.3436 16.8628 21.9622 17.3002 20.8556 16.624C19.9649 16.0797 19.8741 14.4977 20.4446 13.7015C20.7449 13.2823 21.1353 13.0867 21.6432 13.0027Z" fill="#D92E2F"/>
<path d="M38.8583 13.0036C39.4858 12.9072 40.2246 13.1408 40.5721 13.6846C40.7382 13.9445 40.7813 14.1394 40.8384 14.4303C40.5323 14.4373 40.207 14.4342 39.8993 14.436C39.8844 14.3675 39.8649 14.3001 39.8408 14.2343C39.589 13.56 38.5555 13.7118 38.3468 14.372C38.1725 14.9239 38.175 15.8254 38.833 16.057C39.3513 16.2393 39.7293 16.0325 39.9017 15.5257L40.8398 15.5319C40.5581 16.8664 39.1759 17.3025 38.0696 16.622C37.1851 16.0779 37.0942 14.5011 37.6603 13.7059C37.9584 13.2869 38.3534 13.0886 38.8583 13.0036Z" fill="#D92E2F"/>
<path d="M25.1758 13.0445C26.2439 13.0303 27.3431 13.0441 28.4138 13.0444L28.4135 13.7929L27.2575 13.7967L27.2578 15.7272V16.8735L26.3436 16.8725C26.3625 15.8676 26.3447 14.8048 26.3447 13.7952L25.1763 13.7938L25.1758 13.0445Z" fill="#D92E2F"/>
<path d="M11.5625 13.045L12.4901 13.0449L12.4913 16.1203L14.0846 16.1234L14.0847 16.8729C13.264 16.8895 12.3882 16.8739 11.5631 16.8738L11.5625 13.045Z" fill="#D92E2F"/>
<path d="M34.6785 13.046C34.9621 13.0357 35.3173 13.0446 35.6061 13.0445V16.8723C35.3074 16.8785 34.9799 16.8723 34.6793 16.8721C34.6631 15.6115 34.6785 14.3095 34.6785 13.046Z" fill="#D92E2F"/>
<path d="M7.51879 12.0944C7.35536 12.1265 7.21028 12.141 7.05078 12.0896L7.0513 12.0692L7.06212 12.0935L7.08751 12.0625C7.17508 12.0523 7.24037 12.0603 7.32745 12.0667L7.51879 12.0944Z" fill="#D92E2F"/>
</svg>
