<svg width="41" height="17" viewBox="0 0 41 17" fill="none" xmlns="http://www.w3.org/2000/svg">
<path d="M20.9654 0.0181195C21.812 0.00802743 22.6821 0.0279114 23.5271 0.0155008C25.3514 -0.0293136 27.2007 -0.0103296 28.6089 1.34389C30.6014 3.25978 30.5905 7.20801 28.709 9.17515L28.6886 9.19612C27.237 10.6641 25.5358 10.6017 23.6613 10.5995L20.9648 10.5978L20.9654 0.0181195ZM23.5217 8.4171C24.5865 8.42059 25.9681 8.56433 26.776 7.76174C26.8054 7.73222 26.8346 7.70225 26.8633 7.67181C27.7939 6.5596 27.8354 3.73851 26.6549 2.75054C25.8666 2.09085 24.4957 2.18697 23.5228 2.20208L23.5217 8.4171Z" fill="#D92E2F"/>
<path d="M10.6485 0.0166016L12.8468 0.0178835C14.2308 2.04806 15.6648 4.22588 17.0861 6.21452C17.13 5.75579 17.0986 4.63074 17.0985 4.13579L17.0991 0.0169828L19.6508 0.0175014C19.6717 1.20316 19.6529 2.44089 19.653 3.63326L19.6517 10.5972L17.4826 10.5986C17.0994 10.0926 16.6891 9.43769 16.3153 8.9096C15.271 7.4343 14.2687 5.88287 13.2121 4.42071C13.1703 4.93238 13.2009 5.9651 13.2008 6.50697L13.2012 10.5981L10.6484 10.5978L10.6485 0.0166016Z" fill="#D92E2F"/>
<path d="M2.80209 0.038195L7.22478 0.0380859C7.50294 1.17563 7.75306 2.45572 8.0034 3.60709L9.52422 10.603C8.69432 10.6243 7.77406 10.6083 6.93786 10.6044C6.29063 7.79201 5.78106 4.85897 5.14264 2.034L4.76667 2.03788L3.56393 7.24734L3.24096 8.63121L5.5341 8.6338C5.34309 9.48394 5.03697 10.5275 4.80971 11.3843L3.38301 16.7549L3.38026 10.611C2.28322 10.5769 1.11103 10.6189 0 10.6013C0.290898 9.43043 0.630948 8.21711 0.941894 7.04675L2.80209 0.038195Z" fill="#D92E2F"/>
<path d="M29.7834 0.0178474C30.624 0.0165382 31.8904 -0.0254394 32.6978 0.0240937C33.4607 1.48739 34.1931 3.01556 34.9377 4.49269C35.7023 3.08642 36.4764 1.45611 37.2068 0.0168386C38.1451 0.0165931 39.1388 -0.000727426 40.0724 0.0196204C38.8589 2.34162 37.3778 4.74458 36.2088 7.09667C36.1736 7.16726 36.1935 8.37337 36.1935 8.55533L36.1878 12.0137L16.6143 12.014L10.4355 12.0119L8.50577 12.0089C8.22794 12.0083 7.73236 11.9936 7.46746 12.0166L7.27734 11.989C8.28238 11.9748 9.34778 11.9146 10.3591 11.8749L15.7639 11.6674L33.6066 10.9908L33.6102 8.25971C33.6105 8.11611 33.6227 7.13384 33.5908 7.06369C33.3257 6.47628 32.8882 5.71719 32.5819 5.15446L29.7834 0.0178474Z" fill="#D92E2F"/>
<path d="M29.8398 12.962C30.402 12.9582 30.9658 12.9435 31.5288 12.963C32.4444 12.9947 32.9564 13.6941 32.7595 14.5775C32.6776 14.9453 32.4507 15.1378 32.1449 15.3214C32.3934 15.7983 32.6686 16.2882 32.9256 16.7628L32.2611 16.7658L31.924 16.7634L31.2296 15.4689C31.0771 15.4658 30.9123 15.4714 30.759 15.4736L30.7555 16.765L29.8404 16.7643L29.8398 12.962ZM30.759 14.7354C31.0779 14.7407 31.4393 14.7833 31.7033 14.5991C31.8883 14.3698 31.9611 14.0339 31.6812 13.8485C31.3978 13.6608 31.0787 13.6991 30.7588 13.7078L30.759 14.7354Z" fill="#D92E2F"/>
<path d="M7.09856 12.9614C7.95652 12.9411 8.89435 12.9605 9.75881 12.9607L9.75813 13.7045L8.01937 13.7074L8.01975 14.4806C8.50886 14.5024 9.12183 14.4857 9.62038 14.4861L9.62224 15.2373L8.07127 15.2392L8.03251 15.2499C8.00515 15.3905 8.01841 15.8491 8.01972 16.0164L9.75867 16.0192L9.75851 16.7653L7.09766 16.7641L7.09856 12.9614Z" fill="#D92E2F"/>
<path d="M15.6251 12.9609L18.2747 12.9615L18.2743 13.7046L16.5421 13.7075L16.543 14.4807C17.0247 14.5036 17.6457 14.4865 18.1381 14.4873L18.1379 15.237L16.5865 15.2394L16.5502 15.2722C16.5266 15.4444 16.5408 15.8268 16.5432 16.0166L18.2746 16.0197L18.2747 16.7651L15.625 16.7646L15.6251 12.9609Z" fill="#D92E2F"/>
<path d="M21.5043 12.9196C22.5427 12.7669 23.2775 13.3221 23.4673 14.3369C23.1629 14.344 22.8403 14.3414 22.5345 14.3434C22.3553 13.4831 21.2809 13.5217 20.9915 14.2732C20.6775 15.0885 21.0736 16.3621 22.1755 15.9278C22.3727 15.8501 22.4737 15.6153 22.5367 15.4257L23.469 15.4308C23.1938 16.7548 21.8212 17.1894 20.7217 16.5176C19.8368 15.9768 19.7466 14.4049 20.3134 13.6138C20.6118 13.1973 20.9997 13.003 21.5043 12.9196Z" fill="#D92E2F"/>
<path d="M38.6061 12.9205C39.2296 12.8246 39.9636 13.0568 40.3089 13.5971C40.474 13.8553 40.5168 14.049 40.5735 14.338C40.2694 14.3449 39.9462 14.3419 39.6404 14.3437C39.6257 14.2756 39.6063 14.2086 39.5823 14.1432C39.3322 13.4733 38.3053 13.6241 38.098 14.2801C37.9248 14.8284 37.9272 15.7241 38.581 15.9542C39.096 16.1354 39.4716 15.9299 39.6429 15.4264L40.5749 15.4325C40.295 16.7584 38.9217 17.1918 37.8225 16.5156C36.9436 15.975 36.8534 14.4083 37.4158 13.6182C37.712 13.2019 38.1045 13.0049 38.6061 12.9205Z" fill="#D92E2F"/>
<path d="M25.0156 12.9614C26.0769 12.9474 27.1691 12.961 28.2328 12.9613L28.2326 13.705L27.084 13.7088L27.0842 15.6269V16.7659L26.1759 16.7648C26.1948 15.7664 26.177 14.7104 26.177 13.7073L25.0162 13.706L25.0156 12.9614Z" fill="#D92E2F"/>
<path d="M11.4844 12.961L12.406 12.9609L12.4072 16.0166L13.9903 16.0197L13.9903 16.7643C13.1749 16.7808 12.3048 16.7653 11.485 16.7653L11.4844 12.961Z" fill="#D92E2F"/>
<path d="M34.4558 12.963C34.7375 12.9527 35.0905 12.9615 35.3774 12.9615V16.7647C35.0807 16.7709 34.7553 16.7647 34.4566 16.7645C34.4405 15.5119 34.4558 14.2184 34.4558 12.963Z" fill="#D92E2F"/>
<path d="M7.46891 12.017C7.30653 12.049 7.16238 12.0634 7.00391 12.0122L7.00442 11.992L7.01517 12.0161L7.0404 11.9853C7.12741 11.9751 7.19227 11.9831 7.27879 11.9895L7.46891 12.017Z" fill="#D92E2F"/>
</svg>
