<svg width="41" height="17" viewBox="0 0 41 17" fill="none" xmlns="http://www.w3.org/2000/svg">
<path d="M21.106 0.0172348C21.9581 0.00707751 22.8339 0.02709 23.6843 0.0145992C25.5203 -0.0305049 27.3816 -0.0113982 28.799 1.35158C30.8044 3.27986 30.7934 7.2536 28.8997 9.23346L28.8791 9.25457C27.4181 10.7321 25.7059 10.6692 23.8194 10.667L21.1055 10.6653L21.106 0.0172348ZM23.6788 8.47051C24.7506 8.47402 26.141 8.61869 26.9542 7.81091C26.9838 7.78121 27.0132 7.75104 27.042 7.7204C27.9787 6.601 28.0204 3.76167 26.8323 2.76732C26.0389 2.10336 24.6592 2.2001 23.6799 2.21531L23.6788 8.47051Z" fill="#D92E2F"/>
<path d="M10.7188 0.0166016L12.9313 0.0178917C14.3242 2.06119 15.7675 4.25309 17.198 6.25458C17.2422 5.79289 17.2106 4.66057 17.2105 4.16242L17.2111 0.0169853L19.7793 0.0175072C19.8003 1.21083 19.7814 2.45656 19.7815 3.65664L19.7802 10.6656L17.5971 10.667C17.2114 10.1577 16.7984 9.49859 16.4222 8.96709C15.3712 7.48225 14.3624 5.92079 13.299 4.44918C13.2569 4.96416 13.2877 6.00356 13.2876 6.54893L13.288 10.6665L10.7188 10.6662L10.7188 0.0166016Z" fill="#D92E2F"/>
<path d="M2.8202 0.0381957L7.27147 0.0380859C7.55143 1.18298 7.80317 2.47135 8.05513 3.63016L9.58578 10.6713C8.75052 10.6928 7.82431 10.6766 6.9827 10.6727C6.33129 7.84214 5.81843 4.89014 5.17588 2.04691L4.79748 2.0508L3.58697 7.29394L3.26191 8.68676L5.56987 8.68937C5.37762 9.545 5.06953 10.5953 4.8408 11.4576L3.40488 16.863L3.4021 10.6793C2.29797 10.645 1.11821 10.6873 0 10.6696C0.292778 9.49114 0.635026 8.26998 0.947982 7.09206L2.8202 0.0381957Z" fill="#D92E2F"/>
<path d="M29.9835 0.0179628C30.8296 0.0166451 32.1042 -0.0256039 32.9168 0.0242495C33.6846 1.49701 34.4217 3.03505 35.1712 4.52173C35.9407 3.10637 36.7198 1.46552 37.4549 0.0169474C38.3993 0.0167004 39.3994 -0.000732129 40.3391 0.0197473C39.1177 2.35676 37.6271 4.77525 36.4504 7.14254C36.415 7.21359 36.4351 8.4275 36.4351 8.61064L36.4293 12.0914L16.7293 12.0916L10.5106 12.0896L8.5684 12.0866C8.28877 12.086 7.78999 12.0712 7.52337 12.0942L7.33203 12.0665C8.34356 12.0522 9.41585 11.9916 10.4337 11.9517L15.8734 11.7429L33.8315 11.0619L33.8351 8.31311C33.8354 8.16857 33.8477 7.17996 33.8156 7.10935C33.5487 6.51814 33.1084 5.75414 32.8001 5.18778L29.9835 0.0179628Z" fill="#D92E2F"/>
<path d="M30.0352 13.046C30.6009 13.0422 31.1684 13.0274 31.735 13.047C32.6566 13.0789 33.1719 13.7829 32.9736 14.672C32.8913 15.0422 32.6629 15.2359 32.3551 15.4207C32.6052 15.9007 32.8822 16.3938 33.1408 16.8714L32.4721 16.8744L32.1328 16.872L31.4338 15.5691C31.2804 15.5661 31.1146 15.5717 30.9603 15.5739L30.9567 16.8736L30.0357 16.8729L30.0352 13.046ZM30.9603 14.8309C31.2812 14.8362 31.645 14.8792 31.9107 14.6937C32.0968 14.4629 32.1701 14.1249 31.8885 13.9382C31.6032 13.7494 31.282 13.788 30.96 13.7967L30.9603 14.8309Z" fill="#D92E2F"/>
<path d="M7.14544 13.0455C8.00895 13.025 8.95284 13.0445 9.82288 13.0448L9.8222 13.7934L8.0722 13.7962L8.07258 14.5745C8.56486 14.5965 9.18179 14.5796 9.68356 14.58L9.68543 15.336L8.12444 15.338L8.08543 15.3488C8.0579 15.4903 8.07124 15.9519 8.07255 16.1202L9.82275 16.123L9.82258 16.874L7.14453 16.8728L7.14544 13.0455Z" fill="#D92E2F"/>
<path d="M15.7266 13.0449L18.3934 13.0455L18.393 13.7934L16.6496 13.7963L16.6505 14.5745C17.1353 14.5975 17.7603 14.5803 18.2559 14.5811L18.2557 15.3357L16.6943 15.3381L16.6578 15.3711C16.634 15.5444 16.6483 15.9294 16.6507 16.1203L18.3932 16.1234L18.3934 16.8737L15.7266 16.8732L15.7266 13.0449Z" fill="#D92E2F"/>
<path d="M21.6471 13.0037C22.6922 12.85 23.4318 13.4088 23.6228 14.4303C23.3165 14.4374 22.9917 14.4347 22.684 14.4368C22.5036 13.5709 21.4223 13.6097 21.131 14.3661C20.815 15.1867 21.2136 16.4685 22.3227 16.0314C22.5212 15.9532 22.6227 15.7169 22.6862 15.526L23.6245 15.5312C23.3475 16.8637 21.9661 17.3012 20.8595 16.625C19.9689 16.0807 19.878 14.4986 20.4485 13.7024C20.7489 13.2833 21.1392 13.0877 21.6471 13.0037Z" fill="#D92E2F"/>
<path d="M38.8583 13.0036C39.4858 12.9072 40.2246 13.1408 40.5721 13.6846C40.7382 13.9445 40.7813 14.1394 40.8384 14.4303C40.5323 14.4373 40.207 14.4342 39.8993 14.436C39.8844 14.3675 39.8649 14.3001 39.8408 14.2343C39.589 13.56 38.5555 13.7118 38.3468 14.372C38.1725 14.9239 38.175 15.8254 38.833 16.057C39.3513 16.2393 39.7293 16.0325 39.9017 15.5257L40.8398 15.5319C40.5581 16.8664 39.1759 17.3025 38.0696 16.622C37.1851 16.0779 37.0942 14.5011 37.6603 13.7059C37.9584 13.2869 38.3534 13.0886 38.8583 13.0036Z" fill="#D92E2F"/>
<path d="M25.1797 13.0454C26.2479 13.0313 27.347 13.0451 28.4177 13.0454L28.4174 13.7938L27.2614 13.7977L27.2617 15.7282V16.8745L26.3475 16.8735C26.3664 15.8686 26.3486 14.8057 26.3486 13.7961L25.1802 13.7948L25.1797 13.0454Z" fill="#D92E2F"/>
<path d="M11.5625 13.045L12.4901 13.0449L12.4913 16.1203L14.0846 16.1234L14.0846 16.8729C13.264 16.8895 12.3882 16.8739 11.5631 16.8738L11.5625 13.045Z" fill="#D92E2F"/>
<path d="M34.6824 13.046C34.966 13.0357 35.3212 13.0446 35.61 13.0445V16.8723C35.3113 16.8785 34.9838 16.8723 34.6832 16.8721C34.667 15.6115 34.6824 14.3095 34.6824 13.046Z" fill="#D92E2F"/>
<path d="M7.51879 12.0934C7.35536 12.1256 7.21028 12.1401 7.05078 12.0886L7.0513 12.0682L7.06212 12.0925L7.08751 12.0615C7.17508 12.0513 7.24037 12.0593 7.32745 12.0657L7.51879 12.0934Z" fill="#D92E2F"/>
</svg>
