<svg width="18" height="8" viewBox="0 0 18 8" fill="none" xmlns="http://www.w3.org/2000/svg">
<path d="M9.07445 0.00712491C9.4407 0.00275929 9.81708 0.0113606 10.1826 0.00599211C10.9717 -0.0133936 11.7717 -0.00518155 12.3809 0.580625C13.2428 1.4094 13.2381 3.11731 12.4242 3.96825L12.4153 3.97732C11.7874 4.61236 11.0515 4.58533 10.2407 4.58441L9.07422 4.58367L9.07445 0.00712491ZM10.1803 3.64033C10.6409 3.64184 11.2385 3.70403 11.588 3.35684C11.6007 3.34407 11.6134 3.33111 11.6257 3.31794C12.0283 2.83682 12.0463 1.61648 11.5356 1.18911C11.1946 0.90374 10.6016 0.94532 10.1807 0.951857L10.1803 3.64033Z" fill="#F0F0F0"/>
<path d="M4.6094 0.00683594L5.56032 0.00739045C6.159 0.885599 6.77934 1.82768 7.39416 2.68792C7.41315 2.48948 7.39957 2.00281 7.39954 1.7887L7.39977 0.00700085L8.50359 0.00722518C8.51264 0.520114 8.50451 1.05553 8.50455 1.57132L8.50399 4.58375L7.5657 4.58439C7.3999 4.36547 7.22241 4.08219 7.06072 3.85375C6.60898 3.21556 6.17541 2.54445 5.71836 1.91196C5.70027 2.13329 5.7135 2.58003 5.71348 2.81442L5.71363 4.58414L4.60938 4.58404L4.6094 0.00683594Z" fill="#F0F0F0"/>
<path d="M1.21212 0.0166487L3.12528 0.0166016C3.2456 0.508677 3.3538 1.06241 3.46209 1.56047L4.11996 4.58674C3.76097 4.59597 3.36288 4.58903 3.00116 4.58734C2.72119 3.37078 2.50076 2.10201 2.22459 0.879991L2.06195 0.881666L1.54168 3.13516L1.40197 3.7338L2.39393 3.73492C2.3113 4.10267 2.17888 4.55407 2.08057 4.92471L1.46341 7.24793L1.46222 4.59019C0.987668 4.57545 0.480608 4.59362 0 4.58602C0.125836 4.07952 0.272934 3.55466 0.407442 3.04839L1.21212 0.0166487Z" fill="#F0F0F0"/>
<path d="M12.8879 0.0077204C13.2516 0.00715405 13.7994 -0.0110045 14.1487 0.0104224C14.4787 0.643413 14.7955 1.30446 15.1176 1.94344C15.4483 1.33512 15.7832 0.62988 16.0992 0.00728399C16.505 0.0071778 16.9349 -0.000314668 17.3388 0.00848736C16.8138 1.01293 16.1731 2.0524 15.6674 3.06986C15.6522 3.1004 15.6608 3.62213 15.6608 3.70084L15.6583 5.19687L7.19128 5.19698L4.51851 5.19608L3.68373 5.19479C3.56355 5.19454 3.34917 5.18818 3.23458 5.1981L3.15234 5.18618C3.5871 5.18001 4.04797 5.15397 4.48545 5.13681L6.82344 5.04707L14.5418 4.75439L14.5433 3.57297C14.5435 3.51085 14.5488 3.08594 14.535 3.05559C14.4203 2.80149 14.231 2.47313 14.0985 2.2297L12.8879 0.0077204Z" fill="#F0F0F0"/>
<path d="M12.9102 5.60734C13.1533 5.60572 13.3972 5.59936 13.6407 5.60779C14.0368 5.6215 14.2583 5.92405 14.1731 6.30618C14.1377 6.46529 14.0396 6.54854 13.9073 6.62796C14.0148 6.83427 14.1338 7.0462 14.245 7.25149L13.9576 7.2528L13.8117 7.25176L13.5113 6.69177C13.4454 6.69046 13.3741 6.69287 13.3078 6.69383L13.3062 7.25246L12.9104 7.25213L12.9102 5.60734ZM13.3078 6.37448C13.4457 6.37677 13.602 6.39523 13.7163 6.31554C13.7963 6.21632 13.8278 6.07105 13.7067 5.99082C13.5841 5.90965 13.4461 5.92623 13.3077 5.92998L13.3078 6.37448Z" fill="#F0F0F0"/>
<path d="M3.07461 5.60655C3.44574 5.59776 3.85143 5.60616 4.22537 5.60625L4.22508 5.928L3.47293 5.92924L3.47309 6.26372C3.68467 6.27316 3.94983 6.26593 4.16549 6.26608L4.1663 6.59104L3.49538 6.59187L3.47862 6.5965C3.46678 6.65733 3.47252 6.85571 3.47308 6.92808L4.22531 6.92927L4.22524 7.25204L3.07422 7.25152L3.07461 5.60655Z" fill="#F0F0F0"/>
<path d="M6.76175 5.60645L7.90791 5.60668L7.90775 5.92813L7.15844 5.9294L7.15881 6.26385C7.3672 6.27376 7.63582 6.26636 7.84884 6.2667L7.84876 6.59103L7.17763 6.59204L7.16195 6.60623C7.15172 6.68073 7.15788 6.84617 7.1589 6.92825L7.90786 6.92958L7.90793 7.25206L6.76172 7.25184L6.76175 5.60645Z" fill="#F0F0F0"/>
<path d="M9.30602 5.58895C9.75521 5.5229 10.0731 5.76307 10.1552 6.20208C10.0235 6.20515 9.88394 6.20401 9.75167 6.20488C9.67415 5.83273 9.20939 5.84942 9.0842 6.17452C8.9484 6.52718 9.11972 7.0781 9.5964 6.89025C9.6817 6.85663 9.72536 6.75508 9.75261 6.67304L10.1559 6.67526C10.0369 7.24799 9.44313 7.43599 8.96751 7.14536C8.58472 6.91142 8.54569 6.23147 8.79088 5.88927C8.91996 5.70911 9.08774 5.62504 9.30602 5.58895Z" fill="#F0F0F0"/>
<path d="M16.7029 5.58919C16.9726 5.54773 17.2901 5.64816 17.4395 5.88189C17.5109 5.99358 17.5294 6.07735 17.5539 6.20238C17.4224 6.20538 17.2826 6.20407 17.1503 6.20484C17.1439 6.17539 17.1356 6.14641 17.1252 6.11812C17.017 5.82831 16.5727 5.89355 16.4831 6.17733C16.4081 6.41452 16.4092 6.802 16.692 6.90152C16.9148 6.97988 17.0773 6.89101 17.1514 6.67319L17.5545 6.67583C17.4335 7.24939 16.8394 7.43685 16.3639 7.14435C15.9837 6.91052 15.9447 6.2328 16.188 5.89102C16.3161 5.71092 16.4859 5.62571 16.7029 5.58919Z" fill="#F0F0F0"/>
<path d="M10.8203 5.60723C11.2794 5.60115 11.7518 5.60707 12.212 5.6072L12.2119 5.92889L11.715 5.93054L11.7151 6.76028V7.25297L11.3222 7.25251C11.3304 6.82061 11.3227 6.36381 11.3227 5.92988L10.8205 5.9293L10.8203 5.60723Z" fill="#F0F0F0"/>
<path d="M4.97266 5.60649L5.37134 5.60645L5.37185 6.92825L6.05665 6.92958L6.05668 7.25169C5.70394 7.25883 5.32756 7.25212 4.97292 7.25211L4.97266 5.60649Z" fill="#F0F0F0"/>
<path d="M14.9052 5.60763C15.0271 5.60317 15.1797 5.60699 15.3039 5.60698V7.25215C15.1755 7.25484 15.0347 7.25217 14.9055 7.25205C14.8986 6.71024 14.9052 6.15067 14.9052 5.60763Z" fill="#F0F0F0"/>
<path d="M3.23301 5.19751C3.16256 5.21136 3.10001 5.2176 3.03125 5.19543L3.03147 5.18663L3.03614 5.19712L3.04708 5.18376C3.08484 5.17933 3.11298 5.1828 3.15052 5.18556L3.23301 5.19751Z" fill="#F0F0F0"/>
</svg>
