<svg width="3" height="4" viewBox="0 0 3 4" fill="none" xmlns="http://www.w3.org/2000/svg">
<path d="M2.08194 1.3566V0.802734M2.03491 1.3566C2.00836 1.1257 1.96289 1.03737 1.83984 0.933362M2.13942 1.3566C2.15706 1.14369 2.19727 1.04876 2.33623 0.933362" stroke="#F0F0F0" stroke-width="0.0348341"/>
<path d="M0.108927 2.24328C0.0469622 1.1989 0.00526784 0.531913 0.871212 0.417969M1.78909 0.417969C2.23847 0.440611 2.65126 0.844271 2.6553 1.21567C2.6553 1.21567 2.65137 1.66849 2.6553 1.95415C2.65923 2.23982 2.56066 2.89642 1.67995 2.89642M2.08402 1.39507C2.08402 1.39507 2.08402 1.29753 2.08402 1.65458C2.08402 2.01163 1.59924 2.05691 1.35366 2.05691C1.10808 2.05691 0.357404 2.11439 0.357404 2.48189C0.357404 2.84939 0.573375 2.89642 1.02158 2.89642" stroke="#F0F0F0" stroke-width="0.160237"/>
<path d="M1.23981 3.01466V2.25179H1.45926V3.01466L1.59163 3.28985L1.45926 3.78624H1.21368L1.08654 3.28985L1.23981 3.01466Z" fill="#F0F0F0"/>
<path d="M1.45926 1.86862V1.48544H1.73097V1.20851L1.6195 1.02737V0.856687C1.71352 0.670325 1.82302 0.608541 1.77277 0.332434C1.73097 0.179164 1.55851 0.0380859 1.33731 0.0380859C1.09173 0.0380859 0.966235 0.186131 0.896561 0.332434C0.86517 0.607623 1.00795 0.760894 1.04819 0.872363V1.04305L0.938494 1.20851V1.48544H1.23981V1.86862H1.45926Z" fill="#F0F0F0"/>
<path d="M1.23981 3.01466V2.25179H1.45926V3.01466L1.59163 3.28985L1.45926 3.78624H1.21368L1.08654 3.28985L1.23981 3.01466Z" stroke="#F0F0F0" stroke-width="0.076635"/>
<path d="M1.45926 1.86862V1.48544H1.73097V1.20851L1.6195 1.02737V0.856687C1.71352 0.670325 1.82302 0.608541 1.77277 0.332434C1.73097 0.179164 1.55851 0.0380859 1.33731 0.0380859C1.09173 0.0380859 0.966235 0.186131 0.896561 0.332434C0.86517 0.607623 1.00795 0.760894 1.04819 0.872363V1.04305L0.938494 1.20851V1.48544H1.23981V1.86862H1.45926Z" stroke="#F0F0F0" stroke-width="0.076635"/>
</svg>
