<svg width="40" height="17" viewBox="0 0 40 17" fill="none" xmlns="http://www.w3.org/2000/svg">
<path d="M20.6646 0.0169368C21.499 0.00699108 22.3564 0.0265866 23.1892 0.0143561C24.9869 -0.0298083 26.8094 -0.0110997 28.1973 1.32348C30.1609 3.21158 30.1501 7.10253 28.2959 9.04113L28.2758 9.0618C26.8452 10.5085 25.1687 10.4469 23.3214 10.4448L20.6641 10.4432L20.6646 0.0169368ZM23.1838 8.29408C24.2332 8.29752 25.5947 8.43917 26.3909 7.64822C26.4199 7.61914 26.4487 7.5896 26.4769 7.5596C27.3941 6.46353 27.4349 3.68335 26.2716 2.70972C25.4947 2.0596 24.1437 2.15432 23.1849 2.16921L23.1838 8.29408Z" fill="#F0F0F0"/>
<path d="M10.4922 0.0166016L12.6586 0.0178649C14.0225 2.01859 15.4358 4.16482 16.8364 6.12461C16.8797 5.67254 16.8488 4.5638 16.8487 4.07603L16.8492 0.0169773L19.3639 0.0174883C19.3846 1.18595 19.366 2.40572 19.3661 3.58079L19.3649 10.4437L17.2273 10.4451C16.8495 9.94639 16.4452 9.30102 16.0768 8.78059C15.0477 7.32669 14.0599 5.79777 13.0187 4.35683C12.9775 4.86107 13.0076 5.87881 13.0075 6.41282L13.0079 10.4446L10.4922 10.4444L10.4922 0.0166016Z" fill="#F0F0F0"/>
<path d="M2.76144 0.0381934L7.11997 0.0380859C7.3941 1.15913 7.64059 2.42065 7.8873 3.55532L9.38606 10.4497C8.5682 10.4708 7.66129 10.4549 6.83722 10.4511C6.19937 7.67953 5.6972 4.78904 5.06804 2.00505L4.69752 2.00887L3.51223 7.14276L3.19394 8.50656L5.45382 8.50911C5.26558 9.34691 4.9639 10.3753 4.73994 11.2197L3.33394 16.5124L3.33122 10.4576C2.2501 10.424 1.09491 10.4654 0 10.4481C0.286678 9.29418 0.621795 8.09846 0.92823 6.94508L2.76144 0.0381934Z" fill="#F0F0F0"/>
<path d="M29.3553 0.0175885C30.1838 0.0162983 31.4318 -0.0250704 32.2275 0.0237442C32.9793 1.46582 33.7011 2.97181 34.4349 4.42751C35.1883 3.04165 35.9512 1.43499 36.6711 0.0165943C37.5957 0.0163524 38.575 -0.000716874 39.4951 0.0193358C38.2992 2.30765 36.8396 4.67575 35.6875 6.99372C35.6528 7.06329 35.6725 8.25191 35.6725 8.43122L35.6668 11.8395L16.3773 11.8397L10.2882 11.8377L8.38639 11.8347C8.11259 11.8341 7.6242 11.8196 7.36314 11.8423L7.17578 11.8151C8.16624 11.801 9.21618 11.7417 10.2129 11.7026L15.5392 11.4982L33.1231 10.8314L33.1266 8.1399C33.1269 7.99837 33.139 7.03036 33.1075 6.96122C32.8463 6.38233 32.4151 5.63425 32.1132 5.07968L29.3553 0.0175885Z" fill="#F0F0F0"/>
<path d="M29.4102 12.7753C29.9642 12.7716 30.5198 12.7571 31.0746 12.7763C31.977 12.8076 32.4815 13.4968 32.2874 14.3674C32.2068 14.7299 31.9831 14.9195 31.6818 15.1005C31.9267 15.5705 32.1979 16.0533 32.4511 16.521L31.7963 16.524L31.4641 16.5216L30.7797 15.2459C30.6294 15.2429 30.4671 15.2483 30.316 15.2506L30.3125 16.5232L29.4107 16.5224L29.4102 12.7753ZM30.316 14.523C30.6303 14.5282 30.9864 14.5703 31.2466 14.3887C31.4289 14.1627 31.5006 13.8317 31.2248 13.6489C30.9456 13.464 30.6311 13.5018 30.3158 13.5104L30.316 14.523Z" fill="#F0F0F0"/>
<path d="M6.99698 12.7738C7.8425 12.7537 8.76672 12.7729 9.61864 12.7731L9.61797 13.5061L7.90443 13.5089L7.90481 14.271C8.38683 14.2925 8.99091 14.276 9.48222 14.2763L9.48405 15.0166L7.95558 15.0185L7.91739 15.0291C7.89043 15.1677 7.90349 15.6196 7.90478 15.7845L9.61851 15.7872L9.61835 16.5225L6.99609 16.5213L6.99698 12.7738Z" fill="#F0F0F0"/>
<path d="M15.4024 12.7734L18.0136 12.774L18.0132 13.5063L16.3061 13.5092L16.307 14.2711C16.7817 14.2937 17.3937 14.2769 17.879 14.2776L17.8788 15.0165L16.3499 15.0188L16.3142 15.0511C16.2908 15.2209 16.3049 15.5978 16.3072 15.7848L18.0135 15.7878L18.0136 16.5225L15.4023 16.5219L15.4024 12.7734Z" fill="#F0F0F0"/>
<path d="M21.1967 12.7327C22.22 12.5822 22.9442 13.1293 23.1313 14.1295C22.8313 14.1365 22.5133 14.1339 22.2119 14.1359C22.0353 13.288 20.9765 13.3261 20.6913 14.0667C20.3819 14.8701 20.7722 16.1252 21.8582 15.6973C22.0525 15.6207 22.152 15.3893 22.2141 15.2024L23.1329 15.2075C22.8616 16.5123 21.509 16.9406 20.4255 16.2785C19.5534 15.7455 19.4645 14.1965 20.0231 13.4169C20.3172 13.0064 20.6994 12.8149 21.1967 12.7327Z" fill="#F0F0F0"/>
<path d="M38.0486 12.7327C38.663 12.6382 39.3864 12.867 39.7267 13.3995C39.8893 13.6539 39.9315 13.8448 39.9874 14.1296C39.6877 14.1365 39.3692 14.1335 39.0679 14.1352C39.0533 14.0681 39.0343 14.0021 39.0106 13.9377C38.7641 13.2774 37.7521 13.4261 37.5478 14.0726C37.3771 14.6129 37.3795 15.4957 38.0238 15.7224C38.5313 15.9009 38.9015 15.6985 39.0703 15.2022L39.9888 15.2082C39.713 16.5149 38.3596 16.942 37.2763 16.2756C36.4102 15.7429 36.3212 14.1989 36.8755 13.4203C37.1674 13.01 37.5542 12.8159 38.0486 12.7327Z" fill="#F0F0F0"/>
<path d="M24.6562 12.7738C25.7022 12.76 26.7785 12.7735 27.8268 12.7738L27.8265 13.5066L26.6946 13.5104L26.6949 15.4007V16.5231L25.7997 16.5221C25.8183 15.5381 25.8008 14.4975 25.8008 13.5089L24.6568 13.5076L24.6562 12.7738Z" fill="#F0F0F0"/>
<path d="M11.3203 12.7735L12.2286 12.7734L12.2298 15.7848L13.7899 15.7878L13.7899 16.5216C12.9863 16.5379 12.1288 16.5226 11.3209 16.5226L11.3203 12.7735Z" fill="#F0F0F0"/>
<path d="M33.9557 12.7754C34.2334 12.7653 34.5812 12.774 34.864 12.774V16.522C34.5715 16.5281 34.2508 16.522 33.9565 16.5217C33.9406 15.2874 33.9557 14.0126 33.9557 12.7754Z" fill="#F0F0F0"/>
<path d="M7.3645 11.8427C7.20449 11.8741 7.06242 11.8883 6.90625 11.838L6.90676 11.818L6.91735 11.8418L6.94221 11.8114C7.02796 11.8014 7.09189 11.8093 7.17715 11.8155L7.3645 11.8427Z" fill="#F0F0F0"/>
</svg>
