<svg width="349" height="148" viewBox="0 0 349 148" fill="none" xmlns="http://www.w3.org/2000/svg">
<path d="M176.787 0.151902C184.192 0.063633 191.802 0.237544 199.192 0.128998C215.148 -0.262963 231.322 -0.0969234 243.639 11.7476C261.066 28.5046 260.971 63.037 244.515 80.2422L244.336 80.4257C231.64 93.2655 216.76 92.7189 200.366 92.7003L176.782 92.6855L176.787 0.151902ZM199.145 73.6121C208.458 73.6426 220.542 74.8998 227.608 67.8801C227.866 67.6219 228.121 67.3598 228.371 67.0935C236.511 57.3658 236.874 32.6916 226.549 24.0506C219.654 18.2806 207.664 19.1213 199.154 19.2535L199.145 73.6121Z" fill="#D92E2F"/>
<path d="M86.5102 0.145615L105.737 0.156826C117.842 17.9134 130.384 36.9613 142.815 54.3546C143.2 50.3424 142.925 40.5023 142.924 36.1733L142.929 0.148949L165.247 0.153485C165.43 10.5236 165.266 21.3492 165.267 31.778L165.255 92.6866L146.284 92.6995C142.932 88.2732 139.343 82.5455 136.074 77.9266C126.94 65.0232 118.173 51.4539 108.932 38.6654C108.567 43.1406 108.834 52.1731 108.834 56.9125L108.837 92.6945L86.5098 92.6926L86.5102 0.145615Z" fill="#D92E2F"/>
<path d="M253.918 0.156176C261.271 0.144725 272.347 -0.222425 279.409 0.210808C286.081 13.0093 292.487 26.3751 299 39.2946C305.687 26.9949 312.457 12.7357 318.846 0.147352C327.052 0.145205 335.743 -0.00628601 343.909 0.171683C333.296 20.4807 320.342 41.4977 310.117 62.0698C309.809 62.6872 309.983 73.2363 309.983 74.8278L309.933 105.076L138.737 105.078L84.6959 105.06L67.8175 105.034C65.3874 105.029 61.053 104.9 58.736 105.101L57.0732 104.86C65.8636 104.735 75.1819 104.209 84.0274 103.862L131.299 102.047L287.358 96.1294L287.389 72.2422C287.391 70.9862 287.498 62.395 287.219 61.7814C284.9 56.6437 281.074 50.0044 278.395 45.0826L253.918 0.156176Z" fill="#D92E2F"/>
<path d="M254.396 113.375C259.313 113.342 264.244 113.213 269.168 113.384C277.177 113.661 281.655 119.778 279.932 127.505C279.217 130.722 277.232 132.405 274.558 134.011C276.731 138.182 279.138 142.467 281.385 146.618L275.574 146.644L272.625 146.623L266.551 135.301C265.218 135.274 263.777 135.323 262.436 135.343L262.405 146.637L254.401 146.631L254.396 113.375ZM262.436 128.886C265.225 128.932 268.386 129.305 270.695 127.694C272.313 125.688 272.95 122.75 270.502 121.128C268.023 119.487 265.232 119.822 262.434 119.898L262.436 128.886Z" fill="#D92E2F"/>
<path d="M55.5015 113.37C63.0056 113.192 71.2081 113.362 78.7689 113.364L78.763 119.869L63.5552 119.894L63.5585 126.657C67.8365 126.848 73.1977 126.702 77.5582 126.705L77.5744 133.275L64.0092 133.292L63.6702 133.386C63.4309 134.616 63.5469 138.627 63.5583 140.09L78.7677 140.114L78.7663 146.64L55.4937 146.63L55.5015 113.37Z" fill="#D92E2F"/>
<path d="M130.063 113.363L153.237 113.368L153.234 119.868L138.084 119.893L138.091 126.655C142.305 126.856 147.736 126.706 152.043 126.713L152.041 133.271L138.472 133.291L138.155 133.578C137.948 135.084 138.073 138.43 138.093 140.089L153.236 140.116L153.238 146.636L130.062 146.632L130.063 113.363Z" fill="#D92E2F"/>
<path d="M181.512 113.002C190.594 111.667 197.021 116.523 198.681 125.399C196.019 125.461 193.197 125.438 190.522 125.456C188.955 117.931 179.558 118.269 177.027 124.842C174.281 131.972 177.745 143.112 187.383 139.313C189.108 138.634 189.99 136.58 190.541 134.922L198.696 134.966C196.288 146.547 184.284 150.348 174.667 144.472C166.928 139.742 166.138 125.994 171.096 119.075C173.706 115.432 177.098 113.732 181.512 113.002Z" fill="#D92E2F"/>
<path d="M331.068 113.004C336.522 112.165 342.942 114.196 345.962 118.922C347.405 121.18 347.78 122.874 348.276 125.402C345.616 125.462 342.789 125.436 340.115 125.451C339.986 124.856 339.816 124.27 339.606 123.698C337.419 117.838 328.437 119.157 326.624 124.895C325.109 129.691 325.13 137.525 330.849 139.538C335.353 141.122 338.638 139.325 340.136 134.921L348.288 134.975C345.84 146.571 333.828 150.362 324.214 144.448C316.528 139.72 315.738 126.017 320.657 119.106C323.248 115.465 326.681 113.742 331.068 113.004Z" fill="#D92E2F"/>
<path d="M212.188 113.364C221.471 113.241 231.023 113.361 240.327 113.364L240.325 119.868L230.279 119.901L230.281 136.678V146.64L222.337 146.63C222.502 137.898 222.347 128.662 222.347 119.888L212.193 119.876L212.188 113.364Z" fill="#D92E2F"/>
<path d="M93.8643 113.364L101.925 113.363L101.936 140.089L115.782 140.116L115.782 146.629C108.65 146.773 101.04 146.637 93.8695 146.637L93.8643 113.364Z" fill="#D92E2F"/>
<path d="M294.755 113.378C297.219 113.288 300.306 113.365 302.816 113.365V146.628C300.221 146.683 297.374 146.629 294.762 146.627C294.621 135.672 294.755 124.358 294.755 113.378Z" fill="#D92E2F"/>
<path d="M58.7335 105.101C57.3134 105.38 56.0526 105.506 54.6665 105.059L54.671 104.882L54.765 105.093L54.9857 104.824C55.7467 104.735 56.314 104.805 57.0708 104.86L58.7335 105.101Z" fill="#D92E2F"/>
<path d="M19.6365 0H58.8301C61.2593 9.93427 63.4436 21.1134 65.6298 31.1684L78.9113 92.2642C71.6638 92.4505 65.3233 92.3679 58.0207 92.3338C52.3684 67.7731 47.7244 42.1351 42.149 17.4643H36.5952L26.8596 62.959L24.0391 75.0445H43.0052L37.4069 98.9883L25.2796 145.99L25.2556 92.3338C15.675 92.0363 9.70274 92.4872 0 92.3338L7.33888 57.6202L13.1902 30.0498L19.6365 0Z" fill="#D92E2F"/>
</svg>
