<svg width="4" height="4" viewBox="0 0 4 4" fill="none" xmlns="http://www.w3.org/2000/svg">
<path d="M2.25914 0.63623C2.28637 0.704513 2.0417 1.48614 2.00884 1.63027C2.2582 1.64796 2.57723 1.63846 2.83204 1.63752C2.51752 1.99435 2.0954 2.56778 1.79159 2.95449C1.78333 2.95618 1.7899 2.95599 1.76624 2.94825C1.78464 2.78082 1.97467 2.23961 2.02011 1.97777C1.7852 1.96329 1.46178 1.97206 1.22021 1.97153C1.46535 1.59911 1.96471 1.00915 2.25914 0.63623Z" fill="#F0F0F0"/>
<path d="M1.79517 0.00896271C2.26922 -0.0343087 2.71432 0.0773809 3.08599 0.381568C3.17199 0.451917 3.56516 0.797855 3.45766 0.919229C3.39315 0.906195 3.36521 0.873251 3.32835 0.820223C3.05103 0.420978 2.62144 0.165562 2.1253 0.128186C1.68634 0.094599 1.25234 0.239715 0.921799 0.53062C0.515362 0.888421 0.398537 1.28186 0.367484 1.7992C0.307427 1.80417 0.240392 1.8043 0.179617 1.80578C0.285808 1.96016 0.393609 2.11345 0.502988 2.2656C0.586083 2.11974 0.7136 1.96395 0.807973 1.80528L0.630622 1.80251C0.628326 1.75348 0.628867 1.70281 0.628662 1.65361C0.675438 1.14749 0.957356 0.686429 1.45201 0.490903C1.49413 0.474255 1.52442 0.482959 1.56048 0.504668L1.56727 0.541547C1.47986 0.622049 1.23682 0.73722 1.13899 0.836519C0.880931 1.09852 0.783224 1.33658 0.748032 1.68248C0.829108 1.68242 0.935343 1.66302 0.985674 1.72961C0.983509 1.81753 0.567332 2.41343 0.499668 2.43075C0.400249 2.35769 0.0215307 1.82304 0 1.72218C0.0548214 1.66564 0.172611 1.6836 0.248598 1.68548C0.317461 0.769461 0.89389 0.153669 1.79517 0.00896271Z" fill="#3D3D3D"/>
<path d="M3.47652 1.04883C3.48647 1.05054 3.50651 1.05265 3.51236 1.05916C3.61738 1.17446 3.96301 1.6505 3.99182 1.77259L3.97179 1.79242C3.90494 1.81332 3.82625 1.80489 3.75545 1.80211C3.69519 2.11391 3.69358 2.30588 3.51967 2.60817C3.28418 3.01647 2.89613 3.31448 2.44094 3.43666C1.99146 3.55288 1.51421 3.48654 1.11347 3.25212C0.971322 3.16729 0.409607 2.74006 0.533277 2.54569C0.584866 2.55568 0.676371 2.68535 0.710774 2.73113C1.13997 3.30232 1.83627 3.4825 2.50369 3.28862C2.70452 3.22125 2.89057 3.11612 3.0519 2.97887C3.48076 2.61285 3.58944 2.22326 3.62966 1.69136L3.81484 1.68362C3.71684 1.53441 3.60143 1.37809 3.49729 1.23167L3.18062 1.67964C3.24878 1.68143 3.32923 1.6688 3.36784 1.72915C3.4186 2.21085 2.97599 2.90179 2.50179 3.01717C2.4525 3.00731 2.4737 3.01862 2.43831 2.9782L2.44211 2.94379C2.49096 2.88538 2.65961 2.81294 2.74664 2.74445C3.08218 2.48053 3.1951 2.2176 3.25141 1.80972C3.18691 1.80738 3.03435 1.81938 2.99866 1.7672C3.03186 1.64644 3.38481 1.16872 3.47652 1.04883Z" fill="#3D3D3D"/>
</svg>
