<svg width="18" height="8" viewBox="0 0 18 8" fill="none" xmlns="http://www.w3.org/2000/svg">
<path d="M9.25805 0.00725574C9.63209 0.00279723 10.0165 0.0115816 10.3898 0.00609884C11.1957 -0.0136994 12.0127 -0.00531259 12.6348 0.59296C13.5151 1.43937 13.5103 3.18362 12.6791 4.05267L12.67 4.06194C12.0287 4.71048 11.2772 4.68288 10.4491 4.68194L9.25781 4.68119L9.25805 0.00725574ZM10.3874 3.71778C10.8578 3.71932 11.4682 3.78282 11.8251 3.42825C11.8381 3.41521 11.851 3.40197 11.8636 3.38852C12.2748 2.89717 12.2931 1.65086 11.7716 1.21439C11.4233 0.922951 10.8177 0.965415 10.3879 0.972091L10.3874 3.71778Z" fill="#CF0D0F"/>
<path d="M4.70706 0.0078125L5.67822 0.00837882C6.28964 0.905276 6.92317 1.8674 7.55107 2.74594C7.57047 2.54329 7.5566 2.04626 7.55656 1.8276L7.5568 0.00798092L8.68411 0.00821002C8.69335 0.532013 8.68505 1.07882 8.68509 1.60559L8.68452 4.68212L7.72626 4.68277C7.55694 4.4592 7.37567 4.16989 7.21053 3.93658C6.74919 3.28482 6.30638 2.59943 5.83961 1.95347C5.82114 2.17952 5.83465 2.63576 5.83463 2.87514L5.83478 4.68252L4.70703 4.68242L4.70706 0.0078125Z" fill="#CF0D0F"/>
<path d="M1.23791 0.0166497L3.19178 0.0166016C3.31466 0.519149 3.42516 1.08467 3.53576 1.59333L4.20763 4.68399C3.841 4.69342 3.43444 4.68633 3.06502 4.68461C2.77909 3.44215 2.55397 2.14639 2.27193 0.898363L2.10583 0.900074L1.57448 3.20152L1.4318 3.8129L2.44487 3.81404C2.36048 4.18962 2.22524 4.65063 2.12484 5.02915L1.49455 7.40181L1.49334 4.68751C1.00868 4.67246 0.490834 4.69102 0 4.68326C0.128514 4.16597 0.278742 3.62995 0.416112 3.11291L1.23791 0.0166497Z" fill="#CF0D0F"/>
<path d="M13.1615 0.00788469C13.5329 0.00730628 14.0924 -0.0112387 14.4491 0.0106442C14.7861 0.657105 15.1096 1.33222 15.4386 1.98479C15.7764 1.36353 16.1183 0.643284 16.441 0.00743899C16.8556 0.00733054 17.2946 -0.000321364 17.707 0.00866797C17.1709 1.03449 16.5166 2.09607 16.0001 3.13518C15.9846 3.16637 15.9934 3.69921 15.9934 3.7796L15.9909 5.30746L7.34363 5.30757L4.61399 5.30665L3.76145 5.30534C3.63871 5.30507 3.41977 5.29858 3.30274 5.30871L3.21875 5.29654C3.66276 5.29024 4.13343 5.26364 4.58022 5.24612L6.96796 5.15447L14.8506 4.85556L14.8521 3.649C14.8523 3.58555 14.8577 3.15161 14.8436 3.12062C14.7264 2.86111 14.5332 2.52575 14.3978 2.27715L13.1615 0.00788469Z" fill="#CF0D0F"/>
<path d="M13.1836 5.72656C13.4319 5.72491 13.681 5.71841 13.9297 5.72702C14.3343 5.74102 14.5604 6.05001 14.4734 6.44027C14.4373 6.60277 14.337 6.68779 14.2019 6.7689C14.3117 6.9796 14.4333 7.19604 14.5468 7.4057L14.2533 7.40704L14.1043 7.40598L13.7975 6.83407C13.7302 6.83273 13.6574 6.83519 13.5897 6.83618L13.5881 7.40669L13.1838 7.40635L13.1836 5.72656ZM13.5897 6.51003C13.7305 6.51237 13.8902 6.53121 14.0069 6.44983C14.0886 6.3485 14.1207 6.20014 13.9971 6.1182C13.8719 6.03531 13.7309 6.05224 13.5896 6.05607L13.5897 6.51003Z" fill="#CF0D0F"/>
<path d="M3.14102 5.72577C3.52006 5.71679 3.93437 5.72537 4.31627 5.72547L4.31597 6.05406L3.54782 6.05533L3.54799 6.39693C3.76407 6.40657 4.03487 6.39919 4.25512 6.39934L4.25594 6.73122L3.57075 6.73206L3.55363 6.73679C3.54154 6.79891 3.5474 7.00152 3.54798 7.07542L4.31621 7.07664L4.31614 7.40628L3.14062 7.40575L3.14102 5.72577Z" fill="#CF0D0F"/>
<path d="M6.90238 5.72559L8.07292 5.72583L8.07276 6.05412L7.3075 6.05541L7.30789 6.39698C7.5207 6.4071 7.79505 6.39954 8.0126 6.39989L8.01251 6.73113L7.32711 6.73215L7.31109 6.74665C7.30065 6.82273 7.30694 6.9917 7.30797 7.07552L8.07287 7.07688L8.07294 7.40622L6.90234 7.40599L6.90238 5.72559Z" fill="#CF0D0F"/>
<path d="M9.50386 5.70734C9.9626 5.63989 10.2872 5.88517 10.3711 6.33352C10.2366 6.33666 10.0941 6.33549 9.95899 6.33638C9.87982 5.95631 9.40517 5.97336 9.27732 6.30538C9.13862 6.66554 9.31359 7.22818 9.80041 7.03633C9.88753 7.002 9.93212 6.89829 9.95995 6.8145L10.3718 6.81677C10.2502 7.40169 9.64388 7.59369 9.15814 7.29688C8.7672 7.05796 8.72734 6.36354 8.97775 6.01405C9.10958 5.83006 9.28093 5.7442 9.50386 5.70734Z" fill="#CF0D0F"/>
<path d="M17.0569 5.70755C17.3324 5.66521 17.6567 5.76778 17.8092 6.00647C17.8821 6.12054 17.901 6.2061 17.9261 6.33379C17.7917 6.33685 17.649 6.33551 17.5139 6.3363C17.5074 6.30622 17.4988 6.27662 17.4882 6.24773C17.3777 5.95176 16.924 6.01838 16.8324 6.30821C16.7559 6.55044 16.757 6.94616 17.0459 7.0478C17.2734 7.12783 17.4393 7.03707 17.515 6.81461L17.9267 6.81731C17.8031 7.40307 17.1964 7.59453 16.7107 7.29581C16.3225 7.057 16.2826 6.36486 16.5311 6.0158C16.6619 5.83187 16.8353 5.74484 17.0569 5.70755Z" fill="#CF0D0F"/>
<path d="M11.0547 5.72643C11.5236 5.72022 12.006 5.72627 12.476 5.7264L12.4759 6.05493L11.9684 6.05662L11.9686 6.90402V7.40719L11.5673 7.40672C11.5756 6.96563 11.5678 6.49911 11.5678 6.05595L11.0549 6.05536L11.0547 5.72643Z" fill="#CF0D0F"/>
<path d="M5.07812 5.72563L5.4853 5.72559L5.48581 7.07552L6.18519 7.07688L6.18521 7.40584C5.82497 7.41313 5.44058 7.40628 5.07839 7.40627L5.07812 5.72563Z" fill="#CF0D0F"/>
<path d="M15.2216 5.72682C15.3461 5.72226 15.502 5.72617 15.6288 5.72616V7.40633C15.4977 7.40908 15.354 7.40635 15.222 7.40623C15.2149 6.85289 15.2216 6.28141 15.2216 5.72682Z" fill="#CF0D0F"/>
<path d="M3.30371 5.3082C3.23176 5.32234 3.16788 5.32872 3.09766 5.30607L3.09789 5.29709L3.10265 5.3078L3.11383 5.29415C3.15238 5.28963 3.18113 5.29317 3.21946 5.29599L3.30371 5.3082Z" fill="#CF0D0F"/>
</svg>
