<svg width="18" height="8" viewBox="0 0 18 8" fill="none" xmlns="http://www.w3.org/2000/svg">
<path d="M9.20336 0.00819197C9.575 0.0037621 9.95692 0.0124901 10.3278 0.0070425C11.1286 -0.0126286 11.9403 -0.00429563 12.5585 0.590134C13.4331 1.4311 13.4283 3.16416 12.6024 4.02763L12.5934 4.03683C11.9562 4.68121 11.2095 4.65378 10.3867 4.65285L9.20312 4.65211L9.20336 0.00819197ZM10.3254 3.69488C10.7929 3.69641 11.3993 3.75951 11.7539 3.40721C11.7668 3.39426 11.7796 3.3811 11.7922 3.36774C12.2007 2.87954 12.2189 1.64124 11.7007 1.20758C11.3547 0.918005 10.753 0.960197 10.3259 0.96683L10.3254 3.69488Z" fill="#CF0D0F"/>
<path d="M4.6719 0.0078125L5.63682 0.00837518C6.24432 0.899511 6.87378 1.85546 7.49765 2.72836C7.51692 2.527 7.50314 2.03317 7.50311 1.81591L7.50335 0.00797984L8.62341 0.00820747C8.6326 0.528646 8.62435 1.07194 8.62438 1.59533L8.62382 4.6521L7.67172 4.65274C7.50348 4.4306 7.32337 4.14315 7.1593 3.91135C6.70092 3.26377 6.26096 2.58278 5.79718 1.94098C5.77883 2.16557 5.79225 2.61888 5.79223 2.85673L5.79238 4.65249L4.67188 4.6524L4.6719 0.0078125Z" fill="#CF0D0F"/>
<path d="M1.22996 0.0166494L3.17128 0.0166016C3.29338 0.515921 3.40317 1.07781 3.51305 1.5832L4.18061 4.65401C3.81633 4.66338 3.41239 4.65634 3.04534 4.65463C2.76124 3.42015 2.53757 2.13271 2.25734 0.8927L2.09231 0.8944L1.56437 3.18107L1.4226 3.78851L2.42917 3.78965C2.34532 4.16281 2.21095 4.62086 2.1112 4.99696L1.48496 7.35437L1.48375 4.65751C1.00221 4.64256 0.487682 4.66099 0 4.65328C0.127688 4.13932 0.276952 3.60674 0.41344 3.09302L1.22996 0.0166494Z" fill="#CF0D0F"/>
<path d="M13.0742 0.00783404C13.4432 0.00725936 13.9991 -0.0111665 14.3535 0.0105758C14.6884 0.652884 15.0098 1.32366 15.3367 1.97204C15.6723 1.35477 16.0121 0.639152 16.3327 0.00739121C16.7446 0.00728345 17.1807 -0.0003193 17.5905 0.00861229C17.0579 1.02784 16.4078 2.08261 15.8946 3.11505C15.8792 3.14603 15.8879 3.67545 15.8879 3.75532L15.8854 5.27337L7.29371 5.27348L4.58159 5.27257L3.73452 5.27126C3.61257 5.271 3.39504 5.26454 3.27876 5.27461L3.19531 5.26252C3.63647 5.25626 4.10412 5.22984 4.54804 5.21243L6.92045 5.12136L14.7524 4.82437L14.754 3.62556C14.7541 3.56252 14.7595 3.13137 14.7455 3.10057C14.6291 2.84273 14.4371 2.50953 14.3026 2.26252L13.0742 0.00783404Z" fill="#CF0D0F"/>
<path d="M13.0977 5.68943C13.3444 5.68779 13.5919 5.68133 13.839 5.68988C14.2409 5.70379 14.4657 6.0108 14.3792 6.39855C14.3433 6.56001 14.2437 6.64448 14.1095 6.72507C14.2185 6.93441 14.3393 7.14947 14.4521 7.35778L14.1605 7.35911L14.0125 7.35805L13.7077 6.78982C13.6407 6.78849 13.5684 6.79093 13.5011 6.79191L13.4996 7.35876L13.0979 7.35842L13.0977 5.68943ZM13.5011 6.46786C13.6411 6.47019 13.7997 6.48891 13.9156 6.40805C13.9968 6.30737 14.0288 6.15996 13.9059 6.07855C13.7815 5.99619 13.6415 6.01301 13.501 6.01682L13.5011 6.46786Z" fill="#CF0D0F"/>
<path d="M3.11758 5.68961C3.49418 5.68069 3.90584 5.68922 4.28529 5.68931L4.28499 6.0158L3.52177 6.01705L3.52193 6.35646C3.73663 6.36604 4.00569 6.3587 4.22453 6.35886L4.22534 6.6886L3.54455 6.68944L3.52754 6.69414C3.51553 6.75586 3.52135 6.95717 3.52192 7.0306L4.28523 7.03181L4.28516 7.35933L3.11719 7.3588L3.11758 5.68961Z" fill="#CF0D0F"/>
<path d="M6.85941 5.68945L8.02243 5.68969L8.02228 6.01588L7.26193 6.01716L7.26231 6.35653C7.47376 6.36659 7.74635 6.35908 7.9625 6.35943L7.96242 6.68853L7.28141 6.68955L7.2655 6.70396C7.25512 6.77955 7.26137 6.94743 7.2624 7.03071L8.02239 7.03207L8.02246 7.35929L6.85938 7.35906L6.85941 5.68945Z" fill="#CF0D0F"/>
<path d="M9.43697 5.67114C9.89277 5.60412 10.2153 5.84782 10.2986 6.2933C10.165 6.29641 10.0234 6.29525 9.88918 6.29614C9.81052 5.91851 9.33891 5.93545 9.21188 6.26533C9.07408 6.62318 9.24792 7.18221 9.73162 6.99159C9.81818 6.95748 9.86248 6.85443 9.89013 6.77119L10.2994 6.77344C10.1786 7.3546 9.57609 7.54537 9.09347 7.25046C8.70505 7.01308 8.66544 6.32312 8.91424 5.97588C9.04522 5.79307 9.21547 5.70776 9.43697 5.67114Z" fill="#CF0D0F"/>
<path d="M16.9471 5.67136C17.2208 5.62928 17.543 5.7312 17.6945 5.96836C17.767 6.0817 17.7858 6.1667 17.8107 6.29357C17.6772 6.29662 17.5353 6.29529 17.4011 6.29607C17.3946 6.26618 17.3861 6.23678 17.3756 6.20807C17.2658 5.91399 16.815 5.98019 16.724 6.26816C16.648 6.50883 16.6491 6.90201 16.9361 7.003C17.1621 7.08251 17.327 6.99233 17.4022 6.77131L17.8113 6.77399C17.6884 7.35599 17.0856 7.54621 16.6031 7.24941C16.2174 7.01214 16.1777 6.32444 16.4246 5.97763C16.5546 5.79488 16.7269 5.70841 16.9471 5.67136Z" fill="#CF0D0F"/>
<path d="M10.9766 5.6893C11.4424 5.68313 11.9218 5.68914 12.3887 5.68928L12.3886 6.0157L11.8844 6.01737L11.8846 6.85933V7.35927L11.4859 7.3588C11.4941 6.92054 11.4864 6.45702 11.4864 6.0167L10.9768 6.01612L10.9766 5.6893Z" fill="#CF0D0F"/>
<path d="M5.04297 5.6895L5.44753 5.68945L5.44804 7.03071L6.14292 7.03207L6.14294 7.35892C5.78502 7.36616 5.40309 7.35935 5.04323 7.35934L5.04297 5.6895Z" fill="#CF0D0F"/>
<path d="M15.124 5.68969C15.2476 5.68517 15.4026 5.68905 15.5285 5.68904V7.35842C15.3983 7.36115 15.2554 7.35844 15.1243 7.35832C15.1173 6.80854 15.124 6.24072 15.124 5.68969Z" fill="#CF0D0F"/>
<path d="M3.27957 5.27494C3.20786 5.28903 3.1442 5.29539 3.07422 5.27282L3.07445 5.26387L3.07919 5.27454L3.09034 5.26094C3.12876 5.25644 3.15741 5.25997 3.19561 5.26277L3.27957 5.27494Z" fill="#CF0D0F"/>
</svg>
