<svg width="41" height="17" viewBox="0 0 41 17" fill="none" xmlns="http://www.w3.org/2000/svg">
<path d="M20.9693 0.017143C21.8159 0.00705086 22.686 0.0269348 23.5311 0.0145242C25.3553 -0.0302901 27.2046 -0.0113062 28.6128 1.34292C30.6053 3.25881 30.5944 7.20703 28.7129 9.17417L28.6925 9.19515C27.2409 10.6632 25.5397 10.6007 23.6653 10.5986L20.9688 10.5969L20.9693 0.017143ZM23.5256 8.41612C24.5905 8.41961 25.972 8.56335 26.7799 7.76076C26.8094 7.73125 26.8385 7.70127 26.8672 7.67083C27.7978 6.55863 27.8393 3.73753 26.6588 2.74957C25.8705 2.08987 24.4996 2.18599 23.5267 2.2011L23.5256 8.41612Z" fill="#D92E2F"/>
<path d="M10.6485 0.0166016L12.8468 0.0178835C14.2308 2.04806 15.6648 4.22588 17.0861 6.21452C17.13 5.75579 17.0986 4.63074 17.0985 4.13579L17.0991 0.0169828L19.6508 0.0175014C19.6717 1.20316 19.6529 2.44089 19.653 3.63326L19.6517 10.5972L17.4826 10.5986C17.0994 10.0926 16.6891 9.43769 16.3153 8.9096C15.271 7.4343 14.2687 5.88287 13.2121 4.42071C13.1703 4.93238 13.2009 5.96511 13.2008 6.50697L13.2012 10.5981L10.6484 10.5978L10.6485 0.0166016Z" fill="#D92E2F"/>
<path d="M2.80209 0.038195L7.22478 0.0380859C7.50294 1.17563 7.75306 2.45572 8.0034 3.60709L9.52422 10.603C8.69432 10.6243 7.77406 10.6083 6.93786 10.6044C6.29063 7.79201 5.78106 4.85897 5.14264 2.034L4.76667 2.03788L3.56393 7.24734L3.24096 8.63121L5.5341 8.6338C5.34309 9.48394 5.03697 10.5275 4.80971 11.3843L3.38301 16.7549L3.38026 10.611C2.28322 10.5769 1.11103 10.6189 0 10.6013C0.290898 9.43043 0.630948 8.21711 0.941894 7.04675L2.80209 0.038195Z" fill="#D92E2F"/>
<path d="M29.7873 0.0178474C30.6279 0.0165382 31.8943 -0.0254394 32.7017 0.0240937C33.4646 1.48739 34.197 3.01556 34.9416 4.49269C35.7062 3.08642 36.4803 1.45611 37.2107 0.0168386C38.149 0.0165931 39.1427 -0.000727426 40.0763 0.0196204C38.8628 2.34162 37.3817 4.74458 36.2127 7.09667C36.1775 7.16726 36.1974 8.37337 36.1974 8.55533L36.1917 12.0137L16.6182 12.014L10.4395 12.0119L8.50968 12.0089C8.23184 12.0083 7.73627 11.9936 7.47136 12.0166L7.28125 11.989C8.28629 11.9748 9.35169 11.9146 10.363 11.8749L15.7678 11.6674L33.6106 10.9908L33.6141 8.25971C33.6144 8.11611 33.6266 7.13384 33.5947 7.06369C33.3296 6.47628 32.8921 5.71719 32.5858 5.15446L29.7873 0.0178474Z" fill="#D92E2F"/>
<path d="M29.8477 12.9629C30.4098 12.9592 30.9736 12.9445 31.5366 12.964C32.4522 12.9957 32.9642 13.6951 32.7673 14.5785C32.6854 14.9463 32.4585 15.1387 32.1527 15.3223C32.4012 15.7993 32.6764 16.2892 32.9334 16.7638L32.2689 16.7668L31.9318 16.7644L31.2374 15.4698C31.0849 15.4668 30.9201 15.4724 30.7669 15.4746L30.7633 16.766L29.8482 16.7652L29.8477 12.9629ZM30.7669 14.7364C31.0857 14.7417 31.4471 14.7843 31.7111 14.6001C31.8961 14.3707 31.9689 14.0349 31.6891 13.8494C31.4057 13.6618 31.0865 13.7001 30.7666 13.7088L30.7669 14.7364Z" fill="#D92E2F"/>
<path d="M7.10637 12.9624C7.96433 12.9421 8.90216 12.9615 9.76662 12.9617L9.76594 13.7055L8.02718 13.7084L8.02756 14.4816C8.51667 14.5034 9.12964 14.4867 9.62819 14.4871L9.63005 15.2383L8.07908 15.2402L8.04032 15.2509C8.01297 15.3915 8.02622 15.8501 8.02753 16.0174L9.76648 16.0202L9.76632 16.7663L7.10547 16.7651L7.10637 12.9624Z" fill="#D92E2F"/>
<path d="M15.6251 12.9619L18.2747 12.9625L18.2743 13.7056L16.5421 13.7085L16.543 14.4816C17.0247 14.5046 17.6457 14.4875 18.1381 14.4882L18.1379 15.238L16.5865 15.2403L16.5502 15.2731C16.5266 15.4454 16.5408 15.8278 16.5432 16.0176L18.2746 16.0206L18.2747 16.7661L15.625 16.7656L15.6251 12.9619Z" fill="#D92E2F"/>
<path d="M21.5121 12.9205C22.5505 12.7678 23.2853 13.323 23.4751 14.3379C23.1707 14.345 22.8481 14.3424 22.5423 14.3444C22.3631 13.4841 21.2887 13.5227 20.9993 14.2742C20.6854 15.0895 21.0814 16.363 22.1834 15.9288C22.3806 15.8511 22.4815 15.6163 22.5445 15.4266L23.4768 15.4318C23.2016 16.7558 21.829 17.1904 20.7295 16.5185C19.8446 15.9777 19.7544 14.4059 20.3212 13.6148C20.6196 13.1983 21.0075 13.004 21.5121 12.9205Z" fill="#D92E2F"/>
<path d="M38.61 12.9195C39.2335 12.8237 39.9675 13.0558 40.3129 13.5961C40.4779 13.8543 40.5207 14.048 40.5774 14.337C40.2733 14.344 39.9501 14.3409 39.6443 14.3427C39.6296 14.2746 39.6102 14.2076 39.5862 14.1422C39.3361 13.4723 38.3092 13.6231 38.1019 14.2791C37.9287 14.8274 37.9311 15.7232 38.5849 15.9532C39.0999 16.1344 39.4755 15.9289 39.6468 15.4254L40.5788 15.4315C40.2989 16.7574 38.9256 17.1908 37.8264 16.5146C36.9475 15.9741 36.8573 14.4074 37.4197 13.6173C37.7159 13.2009 38.1084 13.0039 38.61 12.9195Z" fill="#D92E2F"/>
<path d="M25.0156 12.9624C26.0769 12.9483 27.1691 12.962 28.2328 12.9623L28.2326 13.706L27.084 13.7098L27.0842 15.6279V16.7669L26.1759 16.7658C26.1948 15.7674 26.177 14.7114 26.177 13.7083L25.0162 13.7069L25.0156 12.9624Z" fill="#D92E2F"/>
<path d="M11.4922 12.962L12.4138 12.9619L12.415 16.0176L13.9981 16.0206L13.9981 16.7653C13.1827 16.7818 12.3126 16.7663 11.4928 16.7662L11.4922 12.962Z" fill="#D92E2F"/>
<path d="M34.4636 12.963C34.7453 12.9527 35.0983 12.9615 35.3852 12.9615V16.7647C35.0885 16.7709 34.7631 16.7647 34.4644 16.7645C34.4483 15.5119 34.4636 14.2184 34.4636 12.963Z" fill="#D92E2F"/>
<path d="M7.47281 12.017C7.31044 12.049 7.16629 12.0634 7.00781 12.0122L7.00833 11.992L7.01908 12.0161L7.04431 11.9853C7.13132 11.9751 7.19618 11.9831 7.2827 11.9895L7.47281 12.017Z" fill="#D92E2F"/>
</svg>
