<svg width="103" height="82" viewBox="0 0 103 82" fill="none" xmlns="http://www.w3.org/2000/svg">
<path d="M69.4552 11.0833H65.0218C63.846 11.0833 62.7183 11.5504 61.8869 12.3818C61.0555 13.2133 60.5884 14.3409 60.5884 15.5167V42.1172C60.5884 43.293 61.0555 44.4207 61.8869 45.2521C62.7183 46.0835 63.846 46.5506 65.0218 46.5506H87.1889C88.3647 46.5506 89.4923 46.0835 90.3238 45.2521C91.1552 44.4207 91.6223 43.293 91.6223 42.1172V15.5167C91.6223 14.3409 91.1552 13.2133 90.3238 12.3818C89.4923 11.5504 88.3647 11.0833 87.1889 11.0833H82.7554M69.4552 11.0833C69.4552 9.9075 69.9223 8.77984 70.7537 7.94842C71.5851 7.11699 72.7128 6.6499 73.8886 6.6499H78.322C79.4978 6.6499 80.6255 7.11699 81.4569 7.94842C82.2884 8.77984 82.7554 9.9075 82.7554 11.0833M69.4552 11.0833C69.4552 12.2591 69.9223 13.3868 70.7537 14.2182C71.5851 15.0496 72.7128 15.5167 73.8886 15.5167H78.322C79.4978 15.5167 80.6255 15.0496 81.4569 14.2182C82.2884 13.3868 82.7554 12.2591 82.7554 11.0833M69.4552 26.6003H69.4774M78.322 26.6003H82.7554M69.4552 35.4671H69.4774M78.322 35.4671H82.7554" stroke="white" stroke-width="4.43341" stroke-linecap="round" stroke-linejoin="round"/>
<path d="M16.5615 72.7567V67.235C16.5615 64.3061 17.725 61.4971 19.7961 59.4261C21.8671 57.355 24.6761 56.1915 27.605 56.1915H28.9854M22.0833 34.1045C22.0833 37.0334 23.2468 39.8424 25.3178 41.9134C27.3889 43.9845 30.1978 45.148 33.1268 45.148C36.0557 45.148 38.8646 43.9845 40.9357 41.9134C43.0067 39.8424 44.1702 37.0334 44.1702 34.1045C44.1702 31.1756 43.0067 28.3667 40.9357 26.2956C38.8646 24.2245 36.0557 23.061 33.1268 23.061C30.1978 23.061 27.3889 24.2245 25.3178 26.2956C23.2468 28.3667 22.0833 31.1756 22.0833 34.1045ZM49.692 75.5176L58.9409 66.4509C59.5081 65.9005 59.9592 65.2421 60.2677 64.5144C60.5763 63.7868 60.7359 63.0048 60.7372 62.2145C60.7384 61.4241 60.5814 60.6416 60.2752 59.913C59.9691 59.1843 59.5201 58.5244 58.9547 57.9722C57.801 56.844 56.2524 56.2108 54.6387 56.2077C53.025 56.2046 51.4739 56.8318 50.3159 57.9557L49.6975 58.563L49.0818 57.9557C47.9283 56.8282 46.3802 56.1956 44.7672 56.1925C43.1542 56.1894 41.6037 56.8161 40.4458 57.9391C39.8785 58.4893 39.4271 59.1476 39.1183 59.8751C38.8096 60.6026 38.6497 61.3846 38.6482 62.1749C38.6466 62.9652 38.8034 63.7478 39.1093 64.4766C39.4152 65.2053 39.864 65.8653 40.4292 66.4177L49.692 75.5176Z" stroke="white" stroke-width="5.52174" stroke-linecap="round" stroke-linejoin="round"/>
</svg>
