<svg width="72" height="72" viewBox="0 0 72 72" fill="none" xmlns="http://www.w3.org/2000/svg">
<path d="M17.9214 62.735V56.7602C17.9214 53.591 19.1804 50.5516 21.4213 48.3106C23.6623 46.0696 26.7017 44.8107 29.871 44.8107H31.3647M23.8962 20.9115C23.8962 24.0807 25.1551 27.1201 27.3961 29.3611C29.6371 31.6021 32.6765 32.8611 35.8458 32.8611C39.015 32.8611 42.0544 31.6021 44.2954 29.3611C46.5364 27.1201 47.7953 24.0807 47.7953 20.9115C47.7953 17.7423 46.5364 14.7028 44.2954 12.4619C42.0544 10.2209 39.015 8.96191 35.8458 8.96191C32.6765 8.96191 29.6371 10.2209 27.3961 12.4619C25.1551 14.7028 23.8962 17.7423 23.8962 20.9115ZM53.1727 62.1883L46.684 65.5879C46.4915 65.6881 46.2749 65.7329 46.0584 65.7171C45.8419 65.7013 45.634 65.6257 45.458 65.4987C45.282 65.3716 45.1447 65.1981 45.0616 64.9976C44.9785 64.7971 44.9527 64.5774 44.9872 64.3631L46.227 57.1605L40.9781 52.061C40.8214 51.9095 40.7105 51.7171 40.658 51.5056C40.6055 51.2941 40.6135 51.0721 40.681 50.865C40.7486 50.6578 40.8731 50.4739 41.0403 50.3341C41.2074 50.1943 41.4105 50.1043 41.6264 50.0744L48.8798 49.0228L52.1241 42.4715C52.2211 42.2763 52.3707 42.1122 52.5559 41.9974C52.7411 41.8826 52.9547 41.8218 53.1727 41.8218C53.3906 41.8218 53.6042 41.8826 53.7894 41.9974C53.9747 42.1122 54.1242 42.2763 54.2212 42.4715L57.4655 49.0228L64.7189 50.0744C64.9342 50.1053 65.1364 50.1959 65.3028 50.3358C65.4693 50.4758 65.5932 50.6595 65.6607 50.8662C65.7281 51.0729 65.7364 51.2943 65.6845 51.5055C65.6326 51.7166 65.5227 51.9091 65.3672 52.061L60.1184 57.1605L61.3551 64.3601C61.3923 64.5748 61.3684 64.7956 61.2864 64.9974C61.2043 65.1993 61.0673 65.374 60.8909 65.5019C60.7145 65.6298 60.5057 65.7056 60.2884 65.7208C60.071 65.736 59.8538 65.69 59.6613 65.5879L53.1727 62.1883Z" stroke="white" stroke-width="5.97479" stroke-linecap="round" stroke-linejoin="round"/>
</svg>
