<svg width="113" height="113" viewBox="0 0 113 113" fill="none" xmlns="http://www.w3.org/2000/svg">
<g filter="url(#filter0_d_1_6546)">
<rect x="5.19092" y="4.41223" width="102" height="102" rx="5.19084" fill="white"/>
<rect x="5.19092" y="4.41223" width="102" height="102" rx="5.19084" fill="white" fill-opacity="0.1"/>
<path d="M76.5135 25.4122H35.8683C30.5236 25.4122 26.1909 29.745 26.1909 35.0897V75.7348C26.1909 81.0796 30.5236 85.4122 35.8683 85.4122H76.5135C81.8583 85.4122 86.1909 81.0796 86.1909 75.7348V35.0897C86.1909 29.745 81.8583 25.4122 76.5135 25.4122Z" fill="#FFD02F"/>
<path fill-rule="evenodd" clip-rule="evenodd" d="M66.8365 35.0896H61.03L65.8687 43.7993L55.2236 35.0896H49.4171L54.7397 45.7348L43.6107 35.0896H37.8042L43.6107 48.638L37.8042 75.7348H43.6107L54.7397 46.7025L49.4171 75.7348H55.2236L65.8687 44.767L61.03 75.7348H66.8365L77.4816 41.8638L66.8365 35.0896Z" fill="#050038"/>
</g>
<defs>
<filter id="filter0_d_1_6546" x="7.81417e-05" y="1.75834e-05" width="112.901" height="112.901" filterUnits="userSpaceOnUse" color-interpolation-filters="sRGB">
<feFlood flood-opacity="0" result="BackgroundImageFix"/>
<feColorMatrix in="SourceAlpha" type="matrix" values="0 0 0 0 0 0 0 0 0 0 0 0 0 0 0 0 0 0 127 0" result="hardAlpha"/>
<feMorphology radius="0.778626" operator="dilate" in="SourceAlpha" result="effect1_dropShadow_1_6546"/>
<feOffset dx="0.259542" dy="1.03817"/>
<feGaussianBlur stdDeviation="2.33588"/>
<feComposite in2="hardAlpha" operator="out"/>
<feColorMatrix type="matrix" values="0 0 0 0 0 0 0 0 0 0 0 0 0 0 0 0 0 0 0.25 0"/>
<feBlend mode="normal" in2="BackgroundImageFix" result="effect1_dropShadow_1_6546"/>
<feBlend mode="normal" in="SourceGraphic" in2="effect1_dropShadow_1_6546" result="shape"/>
</filter>
</defs>
</svg>
