<svg width="113" height="113" viewBox="0 0 113 113" fill="none" xmlns="http://www.w3.org/2000/svg">
<g filter="url(#filter0_d_1_6550)">
<rect x="5.19092" y="4.41223" width="102" height="102" rx="5.19084" fill="white"/>
<rect x="5.19092" y="4.41223" width="102" height="102" rx="5.19084" fill="white" fill-opacity="0.1"/>
<path d="M46.0306 84.4122C51.4561 84.4122 55.8605 80.0079 55.8605 74.5823V64.7524H46.0306C40.6051 64.7524 36.2007 69.1568 36.2007 74.5823C36.2007 80.0079 40.6051 84.4122 46.0306 84.4122Z" fill="#0ACF83"/>
<path d="M36.1909 54.9122C36.1909 49.4866 40.5953 45.0823 46.0208 45.0823H55.8507V64.7524H46.0208C40.5953 64.7524 36.1909 60.348 36.1909 54.9225V54.9122Z" fill="#A259FF"/>
<path d="M36.1909 35.2421C36.1909 29.8166 40.5953 25.4122 46.0208 25.4122H55.8507V45.0823H46.0208C40.5953 45.0823 36.1909 40.678 36.1909 35.2524V35.2421Z" fill="#F24E1E"/>
<path d="M55.769 25.4122H65.5989C71.0245 25.4122 75.4288 29.8166 75.4288 35.2421C75.4288 40.6677 71.0245 45.072 65.5989 45.072H55.769V25.4122Z" fill="#FF7262"/>
<path d="M75.532 54.9122C75.532 60.3377 71.1276 64.7421 65.7021 64.7421C60.2766 64.7421 55.769 60.3377 55.769 54.9122C55.769 49.4866 60.1734 45.0823 65.5989 45.0823C71.0245 45.0823 75.4288 49.4866 75.4288 54.9122H75.532Z" fill="#1ABCFE"/>
</g>
<defs>
<filter id="filter0_d_1_6550" x="7.81417e-05" y="1.75834e-05" width="112.901" height="112.901" filterUnits="userSpaceOnUse" color-interpolation-filters="sRGB">
<feFlood flood-opacity="0" result="BackgroundImageFix"/>
<feColorMatrix in="SourceAlpha" type="matrix" values="0 0 0 0 0 0 0 0 0 0 0 0 0 0 0 0 0 0 127 0" result="hardAlpha"/>
<feMorphology radius="0.778626" operator="dilate" in="SourceAlpha" result="effect1_dropShadow_1_6550"/>
<feOffset dx="0.259542" dy="1.03817"/>
<feGaussianBlur stdDeviation="2.33588"/>
<feComposite in2="hardAlpha" operator="out"/>
<feColorMatrix type="matrix" values="0 0 0 0 0 0 0 0 0 0 0 0 0 0 0 0 0 0 0.25 0"/>
<feBlend mode="normal" in2="BackgroundImageFix" result="effect1_dropShadow_1_6550"/>
<feBlend mode="normal" in="SourceGraphic" in2="effect1_dropShadow_1_6550" result="shape"/>
</filter>
</defs>
</svg>
