<svg width="113" height="113" viewBox="0 0 113 113" fill="none" xmlns="http://www.w3.org/2000/svg">
<g filter="url(#filter0_d_1_6536)">
<rect x="5.19092" y="4.41223" width="102" height="102" rx="5.19084" fill="white"/>
<rect x="5.19092" y="4.41223" width="102" height="102" rx="5.19084" fill="white" fill-opacity="0.1"/>
<path d="M37.5344 27.4122H75.2577C80.977 27.4122 85.6012 32.0364 85.6012 37.7557V74.0188C85.6012 79.7381 80.977 84.3622 75.2577 84.3622H37.5344C31.8151 84.3622 27.1909 79.7381 27.1909 74.0188V37.7557C27.1909 32.0364 31.8151 27.4122 37.5344 27.4122Z" fill="#470137"/>
<path d="M57.9061 42.3797L50.6048 54.4268L58.3929 67.2041C58.4416 67.3014 58.4659 67.3988 58.4416 67.4961C58.4172 67.5935 58.3199 67.5205 58.1738 67.5448H52.6005C52.2111 67.5448 51.9434 67.5205 51.7731 67.2771C51.262 66.2549 50.7265 65.2571 50.2154 64.2349C49.7044 63.237 49.1446 62.2149 48.5605 61.1683C47.9764 60.1218 47.3923 59.0753 46.8082 58.0045H46.7595C46.2484 59.051 45.6886 60.0975 45.1289 61.144C44.5691 62.1905 44.0094 63.237 43.4739 64.2592C42.9142 65.2814 42.3544 66.3279 41.7946 67.3258C41.6973 67.5691 41.5026 67.5935 41.2349 67.5935H35.8806C35.7832 67.5935 35.7102 67.6422 35.7102 67.5205C35.6859 67.4231 35.7102 67.3258 35.7589 67.2527L43.3279 54.8406L35.9536 42.3554C35.8806 42.258 35.8563 42.1607 35.9049 42.112C35.9536 42.039 36.051 42.0146 36.1483 42.0146H41.6729C41.7946 42.0146 41.9163 42.039 42.0137 42.0633C42.111 42.112 42.184 42.185 42.257 42.2824C42.7195 43.3289 43.2549 44.3754 43.8147 45.4219C44.3988 46.4684 44.9585 47.4906 45.567 48.5128C46.1511 49.535 46.6865 50.5571 47.1976 51.6037H47.2463C47.7573 50.5328 48.2928 49.4863 48.8282 48.4641C49.3636 47.4419 49.9234 46.4198 50.4832 45.3976C51.0429 44.3754 51.5784 43.3289 52.1138 42.331C52.1381 42.2337 52.1868 42.1363 52.2598 42.0877C52.3572 42.039 52.4545 42.0146 52.5762 42.039H57.7114C57.8331 42.0146 57.9548 42.0877 57.9791 42.2093C58.0035 42.2337 57.9548 42.331 57.9061 42.3797Z" fill="#FF61F6"/>
<path d="M69.1509 68.0558C67.3499 68.0802 65.5489 67.7151 63.9183 66.9606C62.385 66.2548 61.1194 65.0866 60.2433 63.6507C59.3428 62.1661 58.9047 60.3165 58.9047 58.1017C58.8804 56.3008 59.3428 54.5241 60.2433 52.9665C61.1681 51.3846 62.5067 50.0703 64.113 49.1942C65.8166 48.245 67.861 47.7826 70.2704 47.7826C70.3921 47.7826 70.5624 47.7826 70.7815 47.8069C71.0005 47.8313 71.2439 47.8313 71.5359 47.8556V40.1649C71.5359 39.9946 71.609 39.8972 71.7793 39.8972H76.7199C76.8415 39.8729 76.9389 39.9702 76.9632 40.0676C76.9632 40.0919 76.9632 40.1163 76.9632 40.1163V63.2857C76.9632 63.7237 76.9876 64.2105 77.0119 64.7459C77.0606 65.257 77.0849 65.7438 77.1093 66.1575C77.1093 66.3279 77.0362 66.4739 76.8659 66.5469C75.6003 67.0823 74.2618 67.4717 72.8988 67.7151C71.6576 67.9341 70.4164 68.0558 69.1509 68.0558ZM71.5359 63.1883V52.4798C71.3169 52.4311 71.0979 52.3824 70.8788 52.3581C70.6111 52.3337 70.3434 52.3094 70.0757 52.3094C69.1265 52.3094 68.1773 52.5041 67.3255 52.9422C66.4981 53.3559 65.7923 53.9644 65.2568 54.7432C64.7214 55.522 64.4537 56.5685 64.4537 57.834C64.4294 58.6858 64.5754 59.5377 64.8674 60.3408C65.1108 60.9979 65.4759 61.582 65.9626 62.0688C66.425 62.5069 66.9848 62.8476 67.6176 63.0423C68.2747 63.2613 68.9562 63.3587 69.6376 63.3587C70.0027 63.3587 70.3434 63.3343 70.6598 63.31C70.9762 63.3343 71.2439 63.2857 71.5359 63.1883Z" fill="#FF61F6"/>
</g>
<defs>
<filter id="filter0_d_1_6536" x="7.81417e-05" y="1.75834e-05" width="112.901" height="112.901" filterUnits="userSpaceOnUse" color-interpolation-filters="sRGB">
<feFlood flood-opacity="0" result="BackgroundImageFix"/>
<feColorMatrix in="SourceAlpha" type="matrix" values="0 0 0 0 0 0 0 0 0 0 0 0 0 0 0 0 0 0 127 0" result="hardAlpha"/>
<feMorphology radius="0.778626" operator="dilate" in="SourceAlpha" result="effect1_dropShadow_1_6536"/>
<feOffset dx="0.259542" dy="1.03817"/>
<feGaussianBlur stdDeviation="2.33588"/>
<feComposite in2="hardAlpha" operator="out"/>
<feColorMatrix type="matrix" values="0 0 0 0 0 0 0 0 0 0 0 0 0 0 0 0 0 0 0.25 0"/>
<feBlend mode="normal" in2="BackgroundImageFix" result="effect1_dropShadow_1_6536"/>
<feBlend mode="normal" in="SourceGraphic" in2="effect1_dropShadow_1_6536" result="shape"/>
</filter>
</defs>
</svg>
