<svg width="43" height="59" viewBox="0 0 43 59" fill="none" xmlns="http://www.w3.org/2000/svg">
<g clip-path="url(#clip0_4_1835)">
<path d="M27.0454 5.93497C27.0587 5.94468 27.1407 6.00113 27.2475 5.97643C27.2528 5.97555 27.3692 5.94732 27.4159 5.84588C27.4539 5.76384 27.4257 5.67651 27.4159 5.6474C26.353 2.36849 24.5393 1.13174 24.5393 1.13174C24.1953 0.897087 23.6598 0.541586 22.8624 0.284884C20.6861 -0.414651 18.7816 0.367805 18.4058 0.556582C18.4058 0.556582 17.6322 0.911201 16.9679 1.48283C16.2631 2.08974 15.6712 3.12184 15.5785 3.30356C13.8963 6.59922 0.291105 51.822 0.138496 52.2234C0.134967 52.234 0.0908601 52.3433 0.0546925 52.4977C0.0149963 52.6671 0 52.8285 0 52.9802C0.00441069 53.394 0.0485175 53.8959 0.183485 54.4499C0.454301 55.5658 0.967705 56.3844 1.34438 56.8828C1.34438 56.8828 3.67939 59.7983 8.96163 58.7856C9.10542 58.7582 9.17952 58.6718 9.17952 58.6718C9.23245 58.6109 9.25009 58.5377 9.25627 58.4839C9.25539 58.4548 9.24921 58.3966 9.21657 58.3366C8.93782 57.8302 7.44348 58.5933 6.40961 58.0367C6.03117 57.8329 5.8424 57.4677 5.46572 56.7373C5.46572 56.7373 4.55889 54.9739 4.79442 53.1443C4.89586 52.3548 5.1358 51.7902 5.17815 51.6738C6.24641 48.7592 15.0607 13.704 18.5963 5.98702C18.9157 5.29013 19.6408 3.83813 21.1519 3.14389C21.3804 3.03892 22.8694 2.33938 24.2191 2.95247C24.946 3.28239 25.5476 3.95369 25.8475 4.2889C25.9922 4.45034 26.3115 4.83142 26.4703 5.08371C26.4985 5.12782 26.577 5.25661 26.6926 5.42774C26.7129 5.45774 26.7588 5.52654 26.8205 5.61652C26.9078 5.74443 26.9846 5.85205 27.0446 5.93497H27.0454Z" fill="white"/>
<path d="M11.1035 58.0473L34.4378 52.6337" stroke="white" stroke-width="0.617496" stroke-miterlimit="10" stroke-linecap="round"/>
<path d="M27.8477 7.70203L38.2807 46.5549" stroke="white" stroke-width="1.36697" stroke-miterlimit="10" stroke-linecap="round"/>
<path d="M39.2865 54.218C40.9683 54.218 42.3317 52.8546 42.3317 51.1728C42.3317 49.491 40.9683 48.1277 39.2865 48.1277C37.6047 48.1277 36.2414 49.491 36.2414 51.1728C36.2414 52.8546 37.6047 54.218 39.2865 54.218Z" fill="white" stroke="white" stroke-width="0.0882137" stroke-miterlimit="10"/>
</g>
<defs>
<clipPath id="clip0_4_1835">
<rect width="42.3761" height="59" fill="white"/>
</clipPath>
</defs>
</svg>
