<svg width="5" height="7" viewBox="0 0 5 7" fill="none" xmlns="http://www.w3.org/2000/svg">
<path d="M3.49161 4.42376C4.18983 4.0572 4.6716 3.32407 4.6716 2.47922C4.6716 1.26781 3.68711 0.283325 2.4757 0.283325C1.26429 0.283325 0.283295 1.26781 0.283295 2.47922C0.283295 3.32407 0.765066 4.06069 1.46328 4.42376" stroke="#E1C441" stroke-width="0.566605"/>
<path d="M3.19485 5.19531V5.27212C3.1739 5.65265 2.8597 5.94939 2.47568 5.94939C2.09166 5.94939 1.77747 5.65265 1.76001 5.27212V5.19531" stroke="#E1C441" stroke-width="0.566605"/>
<path d="M3.39384 4.2666H1.55753C1.50354 4.2666 1.45978 4.31037 1.45978 4.36435V5.09748C1.45978 5.15147 1.50354 5.19523 1.55753 5.19523H3.39384C3.44783 5.19523 3.49159 5.15147 3.49159 5.09748V4.36435C3.49159 4.31037 3.44783 4.2666 3.39384 4.2666Z" stroke="#E1C441" stroke-width="0.566605"/>
</svg>
