<svg width="7" height="6" viewBox="0 0 7 6" fill="none" xmlns="http://www.w3.org/2000/svg">
<path d="M6.51245 3.81391V2.10938" stroke="#75D0EB" stroke-width="0.613822" stroke-linecap="round"/>
<path d="M6.44634 1.99608C6.53606 2.04801 6.53606 2.18022 6.44634 2.22744L5.46895 2.77516L3.47639 3.89892C3.4339 3.92253 3.38668 3.92253 3.34418 3.89892L1.35162 2.77516L0.37423 2.22744C0.284518 2.1755 0.284518 2.04329 0.37423 1.99608L3.34418 0.324591C3.38668 0.300983 3.4339 0.300983 3.47639 0.324591L6.44634 1.99608Z" stroke="#75D0EB" stroke-width="0.613822"/>
<path d="M5.46895 2.77991V4.475C5.46895 4.52222 5.44062 4.56943 5.40285 4.59304L3.47639 5.67903C3.4339 5.70264 3.38668 5.70264 3.34418 5.67903L1.41773 4.59304C1.37523 4.56943 1.35162 4.52694 1.35162 4.475V2.77991L3.34418 3.90367C3.38668 3.92728 3.4339 3.92728 3.47639 3.90367L5.46895 2.77991Z" stroke="#75D0EB" stroke-width="0.613822"/>
</svg>
