<svg width="10" height="9" viewBox="0 0 10 9" fill="none" xmlns="http://www.w3.org/2000/svg">
<path fill-rule="evenodd" clip-rule="evenodd" d="M0.477975 0.108281C0.622349 -0.0360936 0.856427 -0.0360936 1.0008 0.108281L9.13407 8.24155C9.27845 8.38592 9.27845 8.62 9.13407 8.76438C8.9897 8.90875 8.75562 8.90875 8.61124 8.76438L0.477975 0.631107C0.3336 0.486733 0.3336 0.252655 0.477975 0.108281Z" fill="#1A237E"/>
<path d="M4.43633 1.68488V2.46586C4.43637 2.4903 4.44609 2.51373 4.46336 2.53102L5.0179 3.08556C5.03082 3.09849 5.04727 3.10729 5.06519 3.11087C5.0831 3.11445 5.10168 3.11264 5.11857 3.10567C5.13545 3.0987 5.1499 3.08688 5.16007 3.0717C5.17024 3.05652 5.17569 3.03867 5.17572 3.0204V1.3071C5.17675 1.20482 5.15008 1.10416 5.09854 1.01581C5.047 0.927451 4.97251 0.85469 4.88297 0.80524C4.79069 0.755568 4.68618 0.733169 4.58165 0.740656C4.47712 0.748143 4.37687 0.785207 4.29261 0.847524C4.28733 0.851193 4.28224 0.855126 4.27736 0.859308L3.53936 1.46353C3.52939 1.47171 3.52124 1.48189 3.51545 1.49342C3.50965 1.50494 3.50633 1.51755 3.5057 1.53043C3.50506 1.54332 3.50714 1.55619 3.51178 1.56823C3.51642 1.58026 3.52354 1.59119 3.53266 1.60031L3.92661 1.9945C3.94285 2.01074 3.96456 2.02035 3.98749 2.02146C4.01043 2.02257 4.03296 2.0151 4.05069 2.00051L4.43633 1.68488Z" fill="#1A237E"/>
<path d="M4.43633 7.18778L2.63245 5.71085C2.50002 5.60329 2.33447 5.54484 2.16387 5.54541H0.739388V3.32725H1.91132C1.92959 3.32722 1.94744 3.32177 1.96262 3.3116C1.97779 3.30143 1.98962 3.28698 1.99659 3.2701C2.00356 3.25321 2.00537 3.23463 2.00179 3.21672C1.99821 3.1988 1.9894 3.18235 1.97648 3.16943L1.42194 2.61489C1.40464 2.59762 1.38122 2.5879 1.35678 2.58786H0.554541C0.407468 2.58786 0.266418 2.64628 0.162421 2.75028C0.0584247 2.85428 0 2.99533 0 3.1424V5.73026C0 5.87733 0.0584247 6.01838 0.162421 6.12238C0.266418 6.22637 0.407468 6.2848 0.554541 6.2848H2.16641L4.27736 8.01312C4.28224 8.0173 4.28733 8.02123 4.29261 8.0249C4.37792 8.08805 4.4796 8.12531 4.58551 8.13224C4.69143 8.13916 4.79709 8.11546 4.8899 8.06395C4.97762 8.014 5.05039 7.94148 5.10065 7.85393C5.1509 7.76637 5.17682 7.66697 5.17572 7.56602V6.4068C5.17568 6.38236 5.16595 6.35893 5.14868 6.34164L4.59414 5.7871C4.58123 5.77417 4.56478 5.76536 4.54686 5.76178C4.52894 5.7582 4.51037 5.76001 4.49348 5.76699C4.47659 5.77396 4.46215 5.78578 4.45198 5.80096C4.44181 5.81614 4.43636 5.83399 4.43633 5.85226V7.18778Z" fill="#1A237E"/>
<path d="M7.39388 4.43633C7.39388 3.86885 7.25964 3.33002 6.98375 2.78957C6.93816 2.70408 6.86083 2.63991 6.76841 2.61086C6.67598 2.58181 6.57584 2.5902 6.48954 2.63423C6.40324 2.67826 6.33767 2.7544 6.30694 2.84629C6.27621 2.93817 6.28278 3.03844 6.32523 3.12553C6.54682 3.55969 6.65449 3.98854 6.65449 4.43633C6.65449 4.49794 6.65211 4.56056 6.64733 4.62418C6.64536 4.65069 6.64912 4.67731 6.65837 4.70224C6.66762 4.72716 6.68214 4.74979 6.70094 4.76859L7.1552 5.22308C7.16696 5.2349 7.1817 5.24332 7.19785 5.24744C7.21401 5.25157 7.23098 5.25124 7.24697 5.2465C7.26295 5.24177 7.27736 5.2328 7.28866 5.22054C7.29996 5.20828 7.30774 5.19319 7.31116 5.17687C7.36583 4.93381 7.39357 4.68546 7.39388 4.43633Z" fill="#1A237E"/>
<path d="M8.87266 4.43633C8.87266 3.25354 8.57043 2.49798 8.0829 1.66224C8.03283 1.57891 7.95196 1.51867 7.85779 1.49453C7.76362 1.4704 7.66374 1.48433 7.57977 1.53331C7.4958 1.58228 7.43449 1.66236 7.40913 1.7562C7.38377 1.85004 7.39638 1.9501 7.44425 2.0347C7.88072 2.78287 8.13327 3.41574 8.13327 4.43633C8.13327 4.98694 8.05725 5.42711 7.91677 5.8377C7.90548 5.87043 7.9036 5.90568 7.91137 5.93942C7.91913 5.97316 7.93621 6.00405 7.96067 6.02855L8.34815 6.41581C8.35886 6.42655 8.37204 6.4345 8.38654 6.43895C8.40104 6.44339 8.41642 6.4442 8.4313 6.4413C8.44619 6.4384 8.46013 6.43188 8.47191 6.42232C8.48368 6.41275 8.49292 6.40044 8.4988 6.38647C8.7361 5.81991 8.87266 5.21985 8.87266 4.43633Z" fill="#1A237E"/>
</svg>
