<svg width="113" height="113" viewBox="0 0 113 113" fill="none" xmlns="http://www.w3.org/2000/svg">
<g filter="url(#filter0_d_1_6609)">
<rect x="5.19092" y="4.41223" width="102" height="102" rx="5.19084" fill="white"/>
<rect x="5.19092" y="4.41223" width="102" height="102" rx="5.19084" fill="white" fill-opacity="0.1"/>
<path d="M48.7238 27.4122C45.631 27.4122 43.1242 29.9247 43.1242 33.0231C43.1234 33.7592 43.2677 34.4882 43.5487 35.1686C43.8297 35.8489 44.2419 36.4672 44.7619 36.9883C45.2819 37.5093 45.8994 37.9228 46.5792 38.2052C47.259 38.4875 47.9877 38.6332 48.7238 38.634H54.3243V33.0231C54.3257 31.5364 53.7362 30.1101 52.6859 29.0579C51.6356 28.0057 50.2105 27.4137 48.7238 27.4122ZM48.7238 42.3746H33.7905C30.6978 42.3746 28.1909 44.887 28.1909 47.9863C28.1909 51.0847 30.6978 53.5973 33.7905 53.5973H48.7247C51.8165 53.5973 54.3243 51.0847 54.3243 47.9863C54.3243 44.887 51.8165 42.3746 48.7238 42.3746Z" fill="#2FBDEE"/>
<path d="M84.1908 47.9863C84.1908 44.887 81.683 42.3746 78.5902 42.3746C75.4974 42.3746 72.9907 44.887 72.9907 47.9863V53.5973H78.5902C80.0769 53.5957 81.5021 53.0037 82.5524 51.9516C83.6027 50.8993 84.1919 49.473 84.1908 47.9863ZM69.2575 47.9863V33.0231C69.2586 31.5364 68.6694 30.1101 67.6191 29.0579C66.5688 28.0057 65.1437 27.4137 63.6569 27.4122C60.5641 27.4122 58.0574 29.9247 58.0574 33.0231V47.9854C58.0574 51.0856 60.5641 53.5982 63.6569 53.5982C65.1437 53.5966 66.5688 53.0046 67.6191 51.9525C68.6694 50.9002 69.2586 49.474 69.2575 47.9873" fill="#29AD72"/>
<path d="M63.6569 83.5228C65.1437 83.5214 66.5688 82.9295 67.6191 81.8772C68.6694 80.8251 69.2586 79.3986 69.2575 77.912C69.2586 76.4252 68.6694 74.999 67.6191 73.9467C66.5688 72.8946 65.1437 72.3026 63.6569 72.301H58.0574V77.912C58.0574 81.0105 60.5641 83.5228 63.6569 83.5228ZM63.6569 68.5605H78.5911C81.683 68.5605 84.1908 66.0481 84.1908 62.9488C84.1919 61.462 83.6027 60.0358 82.5524 58.9835C81.5021 57.9314 80.077 57.3394 78.5902 57.3378H63.6569C60.5641 57.3378 58.0574 59.8504 58.0574 62.9488C58.0565 63.6848 58.2009 64.4138 58.4819 65.0942C58.7627 65.7746 59.1752 66.3928 59.6951 66.9139C60.2151 67.4348 60.8325 67.8484 61.5124 68.1307C62.1922 68.4131 62.9209 68.5589 63.6569 68.5596" fill="#E9A929"/>
<path d="M28.1909 62.9488C28.1902 63.6848 28.3344 64.4138 28.6154 65.0942C28.8964 65.7746 29.3087 66.3928 29.8287 66.9139C30.3487 67.4348 30.9661 67.8484 31.6459 68.1307C32.3257 68.4131 33.0545 68.5589 33.7905 68.5596C35.2772 68.558 36.7025 67.966 37.7527 66.9139C38.803 65.8616 39.3923 64.4354 39.3911 62.9488V57.3378H33.7905C30.6978 57.3378 28.1909 59.8504 28.1909 62.9488ZM43.1242 62.9488V77.9111C43.1242 81.0105 45.631 83.5228 48.7238 83.5228C50.2105 83.5214 51.6356 82.9295 52.6859 81.8772C53.7362 80.8251 54.3257 79.3986 54.3243 77.912V62.9488C54.325 62.2126 54.1808 61.4834 53.8998 60.803C53.6188 60.1226 53.2063 59.5043 52.6864 58.9832C52.1662 58.4621 51.5486 58.0488 50.8686 57.7664C50.1888 57.4841 49.46 57.3385 48.7238 57.3378C45.631 57.3378 43.1242 59.8504 43.1242 62.9488Z" fill="#DC1C50"/>
</g>
<defs>
<filter id="filter0_d_1_6609" x="7.81417e-05" y="1.75834e-05" width="112.901" height="112.901" filterUnits="userSpaceOnUse" color-interpolation-filters="sRGB">
<feFlood flood-opacity="0" result="BackgroundImageFix"/>
<feColorMatrix in="SourceAlpha" type="matrix" values="0 0 0 0 0 0 0 0 0 0 0 0 0 0 0 0 0 0 127 0" result="hardAlpha"/>
<feMorphology radius="0.778626" operator="dilate" in="SourceAlpha" result="effect1_dropShadow_1_6609"/>
<feOffset dx="0.259542" dy="1.03817"/>
<feGaussianBlur stdDeviation="2.33588"/>
<feComposite in2="hardAlpha" operator="out"/>
<feColorMatrix type="matrix" values="0 0 0 0 0 0 0 0 0 0 0 0 0 0 0 0 0 0 0.25 0"/>
<feBlend mode="normal" in2="BackgroundImageFix" result="effect1_dropShadow_1_6609"/>
<feBlend mode="normal" in="SourceGraphic" in2="effect1_dropShadow_1_6609" result="shape"/>
</filter>
</defs>
</svg>
